<?xml version="1.0" encoding="utf-8"?>
<!-- Generator: Adobe Illustrator 25.3.0, SVG Export Plug-In . SVG Version: 6.00 Build 0)  -->
<svg version="1.1" id="Layer_1" xmlns="http://www.w3.org/2000/svg" xmlns:xlink="http://www.w3.org/1999/xlink" x="0px" y="0px"
	 viewBox="0 0 360 360" style="enable-background:new 0 0 360 360;" xml:space="preserve">
<style type="text/css">
	.st0{fill:#FFF000;}
	.st1{font-family:'Poppins-SemiBold';}
	.st2{font-size:49.6026px;}
	.st3{font-size:28.4326px;}
</style>
<g>
	<path class="st0" d="M324.59,129.36c13.84,15.49,25.02,32.6,31.19,51.13c6.33,19.02,6.05,40.96-4.37,58.08
		c-7.34,12.05-18.96,20.78-30.59,28.77c-32.26,22.14-68.21,41.61-105,56.68c-33.79,13.84-78.01,33.44-114.46,18.97
		c-21.71-8.62-37.12-28.6-49.06-47.81C25.86,252.64,9.42,204.06,3.77,154.33c-4.13-36.35-10.73-99.04,17.26-127.9
		c19.39-20,51.83-14.6,76.62-11.11c51.19,7.21,102.34,24.64,147.28,51.39C271.58,82.57,301.71,103.75,324.59,129.36z"/>
</g>
<g>
	<g>
		<path d="M119.99,149.32c0,1.47,0.21,2.74,1.53,3.6c8.97,0.03,17.94,0.05,26.91,0.08c3.6-0.24,7.11,0.55,10.22,2.08
			c3.3,1.62,6.12,1.48,9.33-0.02c2.88-1.34,6.01-2.14,9.26-2.06c9.18-0.03,18.37-0.06,27.55-0.09c1.32-0.86,1.54-2.11,1.53-3.59
			c-0.03-19.71-0.02-39.42-0.02-59.12c0-1.92-0.07-3.88-2.66-3.82c-10.75,0.24-21.51-0.63-32.24,0.51
			c-3.16,0.34-5.84,3.14-8.47,2.92c-2.6-0.22-5.18-2.58-8.21-2.91c-1.58-0.17-3.16-0.42-4.74-0.63c-9.48,0.02-18.97,0.05-28.45,0.07
			c-1.26,0.89-1.55,2.12-1.55,3.61C120.02,109.73,120.02,129.53,119.99,149.32z M166.65,97.79c0-5.22,0.42-5.9,5.58-6.52
			c9.56-1.15,19.18-0.34,28.77-0.46c0.17,0,0.35,0.4,0.52,0.61c0,18.58,0,37.15,0,55.73c0.27,2.3-1.5,1.27-2.38,1.33
			c-10.82,0.7-21.85-1.73-32.5,2.38C166.65,132.99,166.65,115.39,166.65,97.79z"/>
		<path d="M185.33,112.54c2.11,0.05,4.23,0.27,6.31,0.09c2.4-0.21,3.36,0.59,2.85,2.99c-6.6,0.05-13.2,0.11-19.8,0.16
			c-0.76-1.05-0.57-2.1,0.03-3.14C178.25,112.61,181.79,112.57,185.33,112.54z"/>
		<path d="M176.18,123.59c5.51,0.04,11.03,0.02,16.54,0.01c1.07,0,1.82,0.17,1.85,1.53c0.04,1.37-0.67,1.54-1.76,1.53
			c-2.76-0.03-5.51-0.01-8.27-0.01c-2.76,0-5.51,0.01-8.27-0.01c-0.91-0.01-1.98,0.24-2.04-1.27
			C174.17,123.93,174.9,123.59,176.18,123.59z"/>
		<path d="M192.88,121.14c-5.64,0-11.28,0-16.92,0c-0.9,0-1.67-0.08-1.7-1.32c-0.04-1.41,0.77-1.51,1.84-1.5
			c2.77,0.03,5.53,0.01,8.3,0.01c2.77,0,5.53,0.01,8.3-0.01c1.04-0.01,1.88,0.03,1.84,1.47C194.5,121.01,193.8,121.14,192.88,121.14
			z"/>
		<path d="M176.26,129.2c5.42,0,10.85,0,16.27,0c0.94,0,1.93-0.17,2.01,1.32c0.08,1.78-1.14,1.46-2.14,1.47
			c-2.66,0.03-5.32,0.01-7.97,0.01c-2.66,0-5.32,0.02-7.97-0.01c-0.98-0.01-2.26,0.35-2.19-1.43
			C174.32,129.13,175.28,129.2,176.26,129.2z"/>
		<path d="M184.6,110.22c-2.99,0.01-5.97,0-8.96,0.01c-1.16,0-1.37-0.71-1.37-1.69c0-1.13,0.76-1.1,1.52-1.11
			c1.39-0.01,2.77,0,4.16,0c1.49,0,2.99,0.02,4.48-0.01c0.9-0.02,1.39,0.27,1.34,1.27C185.73,109.52,185.62,110.22,184.6,110.22z"/>
	</g>
</g>
<text transform="matrix(1 0 0 1 123.25 221.7305)" class="st1 st2">50+</text>
<g>
	<text transform="matrix(1 0 0 1 100.6875 263.2812)" class="st1 st3">Courses</text>
</g>
</svg>
