<?xml version="1.0" encoding="utf-8"?>
<!-- Generator: Adobe Illustrator 25.3.0, SVG Export Plug-In . SVG Version: 6.00 Build 0)  -->
<svg version="1.1" id="Layer_1" xmlns="http://www.w3.org/2000/svg" xmlns:xlink="http://www.w3.org/1999/xlink" x="0px" y="0px"
	 viewBox="0 0 360 246.86" style="enable-background:new 0 0 360 246.86;" xml:space="preserve">
<style type="text/css">
	.st0{fill:#BA3826;}
	.st1{fill:#BC4327;}
	.st2{fill:#BD4A27;}
	.st3{fill:#C05527;}
	.st4{fill:#C76028;}
	.st5{fill:#CE6E29;}
	.st6{fill:#EDAE8A;}
	.st7{fill:#DD8951;}
	.st8{fill:#D67C3A;}
	.st9{fill:#E59767;}
	.st10{fill:#F7CFBE;}
	.st11{fill:#FBDFD7;}
	.st12{fill:#F4C0A7;}
	.st13{fill:#E5A076;}
</style>
<g>
	<path d="M0,160.95c5.36,0,10.73,0.05,16.09-0.03c1.39-0.02,1.74,0.35,1.73,1.73c-0.06,11.28-0.13,22.57,0,33.85
		c0.08,6.98,4.18,11.15,12.22,9.83c5.04-0.83,6.87-4.49,7.68-8.12c0.44-2.01,0.4-4.01,0.4-6.03c0.01-9.8,0.04-19.61-0.03-29.41
		c-0.01-1.44,0.29-1.9,1.81-1.87c4.94,0.11,9.88,0.09,14.82,0.01c1.27-0.02,1.65,0.25,1.65,1.6c-0.05,18.12-0.05,36.25-0.01,54.37
		c0,1.26-0.24,1.68-1.6,1.65c-4.94-0.09-9.88-0.07-14.82-0.01c-1.07,0.01-1.43-0.24-1.44-1.38c-0.02-1.33,0.51-2.77-0.43-4.07
		c-3.45,4.38-7.99,6.31-13.37,6.72c-4.35,0.33-8.61,0.25-12.76-1.27c-6.7-2.45-10.34-7.33-11.51-14.23
		c-0.05-0.29-0.08-0.54-0.43-0.6C0,189.44,0,175.2,0,160.95z"/>
	<path d="M88.09,246.86c-5.71-2.81-7.64-8.5-4.69-13.81c1.64-2.94,5.73-4.82,9.3-3.92c3.58,0.91,5.81,2.8,6.42,6.55
		c0.94,5.73-1.22,9.36-5.95,11.18C91.48,246.86,89.78,246.86,88.09,246.86z M85.54,237.45c-0.07,2.84,0.52,5.23,3.12,6.41
		c2.7,1.23,5.4,0.21,6.66-2.23c1.62-3.15,0.82-7.61-1.6-9.14c-1.79-1.13-3.79-1.31-5.45-0.27
		C86.43,233.37,85.23,235.23,85.54,237.45z"/>
	<path d="M55.9,246.86c0-5.29,0.04-10.58-0.03-15.86c-0.01-1.18,0.29-1.54,1.5-1.54c1.19,0,1.53,0.32,1.53,1.52
		c0,1.73-0.83,4.1,0.34,5.02c1.1,0.86,3.37,0.26,5.12,0.27c2.97,0.02,2.97,0,2.97-2.96c0-0.63,0.08-1.28-0.02-1.9
		c-0.26-1.59,0.34-2.05,1.93-1.96c1.19,0.06,1.52,0.36,1.5,1.54c-0.06,5.29-0.03,10.58-0.03,15.86c-1.13,0-2.26,0-3.39,0
		c0-0.42,0.02-0.85,0-1.27c-0.13-2.22,0.98-5.37-0.43-6.43c-1.49-1.13-4.45-0.26-6.77-0.36c-1.02-0.04-1.33,0.28-1.3,1.3
		c0.07,2.25,0.02,4.51,0.02,6.77C57.88,246.86,56.89,246.86,55.9,246.86z"/>
	<path d="M114.35,246.86c-1.61-0.88-3.62-1.37-4.17-3.43c-0.16-0.6-1.2-1.58-0.16-1.94c0.89-0.3,2.37-0.76,2.99,0.58
		c1.13,2.43,3.18,2.44,5.31,2.21c1.05-0.11,1.93-0.56,2.07-1.89c0.12-1.2-0.2-1.93-1.31-2.52c-1.54-0.82-3.27-0.89-4.87-1.46
		c-3.13-1.12-4.15-2.62-3.67-5.72c0.29-1.86,2.51-3.49,4.95-3.61c2.55-0.13,5.03,0.01,6.81,2.23c0.65,0.81,1.56,1.99,0.65,2.63
		c-0.72,0.51-2.33,0.87-3.19-0.78c-0.76-1.46-3.44-2.22-4.78-1.44c-0.65,0.38-1.58,0.9-1.45,1.89c0.15,1.2,0.98,1.97,2.14,2.2
		c1.74,0.35,3.46,0.71,5.06,1.52c2.37,1.2,3.16,2.45,2.91,5.05c-0.21,2.18-1.66,3.37-3.62,4.02c-0.27,0.09-0.54,0.09-0.6,0.43
		C117.73,246.86,116.04,246.86,114.35,246.86z"/>
	<path d="M194.81,246.86c0.73-3.68,2.4-7.03,3.6-10.55c0.68-1.98,1.68-3.87,2.23-5.88c0.28-1.03,0.79-1.05,1.45-0.9
		c1.04,0.23,2.44-0.82,3.08,0.82c2.06,5.29,4.11,10.58,6.15,15.88c0.07,0.18,0.01,0.42,0.01,0.63c-1.13,0-2.26,0-3.39,0
		c-0.18-1.64-0.99-3.05-1.63-4.53c-0.22-0.51-0.52-0.55-0.94-0.55c-1.68,0-3.36,0.06-5.03-0.03c-0.79-0.04-0.94,0.49-1.12,0.95
		c-0.52,1.37-0.97,2.77-1.45,4.15C196.79,246.86,195.8,246.86,194.81,246.86z M205.33,239.22c-0.93-2.19-1.37-4.4-2.62-6.41
		c-0.79,2.25-1.51,4.29-2.26,6.41C202.14,239.22,203.62,239.22,205.33,239.22z"/>
	<path d="M135.1,246.86c0-5.2,0.04-10.41-0.03-15.61c-0.02-1.29,0.19-1.92,1.67-1.76c2.76,0.29,5.58-0.46,8.31,0.4
		c2.55,0.8,3.49,2.61,3.17,5.92c-0.17,1.81-2.21,3.67-4.27,3.85c-1.93,0.17-4.74-0.87-5.59,0.41c-0.98,1.46-0.28,4.06-0.3,6.16
		c0,0.21,0,0.42,0,0.63C137.07,246.86,136.09,246.86,135.1,246.86z M140.72,237.12c0.88,0,1.59,0.09,2.27-0.02
		c1.87-0.29,2.71-1.99,1.86-3.63c-0.66-1.27-5.38-2.58-6.51-1.81c-0.11,0.07-0.24,0.21-0.25,0.32c-0.01,1.61-0.3,3.3,0.11,4.79
		C138.44,237.63,139.97,236.93,140.72,237.12z"/>
	<path d="M289.25,246.86c-0.25-2.73,0.71-5.59-0.88-8.16c-1.82-2.94-3.66-5.87-5.51-8.82c2.9-0.85,3.33-0.67,4.69,1.69
		c1.07,1.87,2.2,3.7,3.36,5.67c1.1-1.79,2.42-3.39,3.14-5.22c0.94-2.39,2.49-2.93,4.83-2.37c-1.55,2.58-2.9,5.35-4.75,7.74
		c-1.62,2.09-2.15,4.23-1.93,6.73c0.08,0.91,0.01,1.83,0.01,2.74C291.23,246.86,290.24,246.86,289.25,246.86z"/>
	<path d="M264.27,246.86c0-4.37-0.06-8.74,0.03-13.11c0.03-1.38-0.34-1.9-1.73-1.72c-0.76,0.1-1.55-0.01-2.33,0.03
		c-0.92,0.04-1.54,0.03-1.54-1.28c0-1.31,0.63-1.28,1.54-1.28c3.81,0.02,7.62,0.02,11.43,0c0.92-0.01,1.54-0.03,1.54,1.28
		c0,1.31-0.62,1.27-1.54,1.28c-4.02,0.07-4.02,0.09-4.02,4.22c0,3.53,0,7.05,0,10.58C266.52,246.86,265.39,246.86,264.27,246.86z"/>
	<path d="M221.92,246.86c0-5.29,0.07-10.58-0.04-15.87c-0.03-1.49,0.62-1.51,1.74-1.51c1.12,0,1.78,0.03,1.73,1.52
		c-0.12,3.95,0.01,7.9-0.07,11.85c-0.02,1.21,0.34,1.57,1.53,1.5c1.62-0.1,3.27,0.14,4.86-0.06c2.15-0.27,2.95,0.48,2.53,2.58
		C230.1,246.86,226.01,246.86,221.92,246.86z"/>
	<path d="M179.14,246.86c0-4.37-0.06-8.74,0.03-13.11c0.03-1.38-0.34-1.9-1.73-1.72c-0.76,0.1-1.55-0.01-2.33,0.03
		c-0.92,0.04-1.54,0.03-1.54-1.28c0-1.31,0.63-1.28,1.54-1.28c3.81,0.02,7.62,0.02,11.43,0c0.92-0.01,1.54-0.03,1.54,1.28
		c0,1.31-0.62,1.27-1.54,1.28c-4.45,0.08-4.45,0.1-4.45,4.65c0,3.38,0,6.77,0,10.15C181.12,246.86,180.13,246.86,179.14,246.86z"/>
	<path d="M244.78,246.86c0-5.29,0.07-10.58-0.04-15.87c-0.03-1.49,0.62-1.52,1.74-1.52c1.12,0,1.77,0.03,1.74,1.52
		c-0.11,5.29-0.04,10.58-0.04,15.87C247.04,246.86,245.91,246.86,244.78,246.86z"/>
	<path d="M159.66,246.86c0-5.29,0.04-10.58-0.03-15.87c-0.01-1.19,0.31-1.53,1.51-1.53c1.2,0,1.52,0.34,1.51,1.53
		c-0.06,5.29-0.03,10.58-0.03,15.87C161.64,246.86,160.65,246.86,159.66,246.86z"/>
	<path d="M14.5,121.34c7.56-5.49,16.01-8.81,25.11-10.82c6.58-1.45,13.2-1.49,19.79-1.1c6.83,0.4,13.45,2.2,19.76,4.95
		c2.43,1.06,4.91,2.04,7.12,3.54c0.87,0.59,1.05-0.02,1.39-0.55c2.1-3.21,4.18-6.42,6.6-9.41c3.64-4.48,7.36-8.82,11.74-12.65
		c3.96-3.46,8.01-6.77,12.38-9.66c10.48-6.93,21.9-11.82,34.09-14.8c10.84-2.65,21.93-3.17,32.99-2.49
		c11.11,0.68,21.83,3.37,32.21,7.5c9.14,3.64,17.51,8.6,25.23,14.59c5.94,4.61,11.32,9.88,16.05,15.8
		c3.14,3.92,5.97,8.03,8.61,12.28c0.65,1.04,1.07,0.76,1.67,0.39c7.06-4.31,14.62-7.08,22.83-8.38c13.54-2.15,26.3-0.08,38.38,6.31
		c2.16,1.14,4.29,2.37,6.24,4.09c-1.19,0.64-1.84-0.38-2.65-0.63c-5.1-1.56-10.24-2.82-15.59-3.41
		c-12.23-1.36-23.64,1.09-34.45,6.76c-6.91,3.63-12.56,8.84-17.8,14.5c-1.31,1.42-1.97,1.07-2.73-0.28
		c-3.32-5.91-7.07-11.55-11.4-16.76c-5.04-6.06-10.79-11.41-17.22-16.02c-8.59-6.16-17.91-10.85-27.99-14.05
		c-5.62-1.78-11.36-2.89-17.18-3.79c-6-0.92-12.02-1.06-18-0.7c-10.71,0.63-21.07,3.04-31.05,7.09c-8.34,3.38-16.08,7.79-23.14,13.3
		c-6.98,5.45-13.14,11.76-18.41,18.94c-2.59,3.53-4.78,7.31-7.17,10.96c-0.29,0.44-0.66,0.84-1.02,1.29
		c-6.22-5.72-12.44-11.28-20.04-14.94c-6.11-2.95-12.47-5.06-19.26-5.87c-2.33-0.28-4.67-0.67-7-0.74
		c-10.23-0.3-20.1,1.69-29.72,5.06C14.73,121.53,14.62,121.43,14.5,121.34z"/>
	<path d="M83.94,214.05c-0.26,4.46-0.26,4.46-4.77,4.46c-3.88,0-7.76-0.02-11.65,0.01c-0.97,0.01-1.49-0.07-1.49-1.32
		c0.04-29.4,0.03-58.79,0.03-88.49c3.78,2.42,7.4,4.69,10.98,7.04c1.94,1.27,3.77,2.69,5.85,3.76c1.01,0.52,1.45,1.32,1.43,2.63
		c-0.1,7.88-0.05,15.77-0.05,23.85c3.26-3.73,7.42-5.52,11.94-6.23c4.99-0.79,10-0.61,14.91,1.08c8.45,2.9,13.09,9.12,15.48,17.33
		c1.29,4.43,1.68,9.04,1.25,13.62c-0.79,8.47-3.26,16.33-9.99,22.11c-4.14,3.56-9.01,5.51-14.54,5.95
		c-3.89,0.31-7.64,0.11-11.42-0.86C88.69,218.15,86.14,216.42,83.94,214.05z M83.42,189.23c0.03,2.6-0.08,4.68,0.41,6.75
		c0.85,3.59,2.04,6.98,5.38,9.01c2.74,1.67,5.71,2.2,8.98,1.71c5-0.74,8.05-3.5,9.84-8.12c1.89-4.86,2.1-9.82,1.19-14.84
		c-0.81-4.5-2.8-8.24-7.34-10.16c-2.48-1.05-5.04-0.88-7.57-0.75c-3.87,0.2-6.96,1.9-8.78,5.5
		C83.73,181.94,83.25,185.79,83.42,189.23z"/>
	<path d="M341.53,213.09c-3.31,4.52-7.92,6.16-13.16,6.72c-3.95,0.42-7.82,0.25-11.62-0.88c-6.96-2.06-11.03-6.78-12.69-13.75
		c-0.6-2.51-0.72-5.1-0.76-7.61c-0.18-11.56-0.05-23.13-0.12-34.7c-0.01-1.56,0.33-2,1.94-1.96c4.87,0.12,9.74,0.1,14.61,0.01
		c1.38-0.02,1.74,0.34,1.73,1.73c-0.06,11.43-0.08,22.85,0,34.28c0.03,3.94,1.41,7.36,5.37,8.94c4.21,1.68,8.27,0.98,11.76-1.85
		c1.72-1.4,2.25-3.67,2.74-5.81c0.59-2.54,0.42-5.14,0.43-7.72c0.01-9.24,0.04-18.48-0.03-27.72c-0.01-1.44,0.29-1.91,1.82-1.87
		c4.66,0.11,9.32,0.11,13.97,0c1.62-0.04,2.09,0.34,2.08,2.04c-0.08,14.74-0.14,29.48,0.03,44.22c0.04,3.34,0.32,6.7,0.37,10.06
		c0.02,1-0.26,1.32-1.29,1.31c-5.08-0.05-10.16-0.05-15.24,0c-1.01,0.01-1.37-0.26-1.3-1.29
		C342.26,215.86,342.31,214.47,341.53,213.09z"/>
	<path d="M218.23,167.22c3.76-4.83,8.69-6.84,14.43-7.61c3.93-0.52,7.68-0.2,11.4,0.91c6.97,2.08,10.89,6.96,12.58,13.85
		c0.63,2.56,0.88,5.16,0.87,7.81c-0.05,11.49-0.05,22.98,0.01,34.48c0.01,1.42-0.25,1.92-1.8,1.88c-4.65-0.11-9.31-0.11-13.97-0.01
		c-1.57,0.03-2.11-0.28-2.1-2.01c0.09-10.93,0.07-21.86,0.02-32.78c-0.01-1.51-0.14-3.08-0.57-4.51c-0.96-3.19-2.78-5.52-6.42-6.12
		c-2.79-0.46-5.47-0.55-8.1,0.51c-4.34,1.75-5.66,5.49-6.03,9.66c-0.99,11.16-0.25,22.35-0.41,33.53c-0.02,1.37-0.35,1.75-1.73,1.73
		c-4.87-0.09-9.74-0.07-14.6-0.01c-1.2,0.02-1.51-0.32-1.51-1.51c0.04-18.19,0.04-36.38,0-54.57c0-1.17,0.27-1.55,1.49-1.53
		c4.8,0.07,9.59,0.04,14.39,0.02c0.87,0,1.32,0,1.63,1.21C218.22,163.82,217.82,165.47,218.23,167.22z"/>
	<path d="M172.16,212.81c-3.84,5-8.74,6.77-14.63,7.06c-6.16,0.31-11.82-0.5-16.84-4.31c-3.35-2.53-5-6.09-5.98-9.98
		c-0.64-2.54-0.92-5.15-0.91-7.81c0.05-11.64,0.05-23.27-0.02-34.91c-0.01-1.57,0.34-2,1.94-1.96c4.73,0.12,9.46,0.1,14.18,0.01
		c1.38-0.03,1.74,0.34,1.73,1.73c-0.06,10.23-0.03,20.45-0.04,30.68c0,2.22,0.4,4.37,0.81,6.54c1.07,5.59,6.32,7.36,10.6,6.74
		c6.9-0.99,8.42-4.99,8.9-10.21c1.02-11.09,0.24-22.21,0.39-33.32c0.02-1.74,0.39-2.23,2.17-2.17c4.72,0.14,9.46,0.09,14.18,0.02
		c1.19-0.02,1.52,0.31,1.51,1.51c-0.04,18.2-0.04,36.39,0,54.59c0,1.19-0.31,1.53-1.51,1.51c-4.66-0.07-9.32-0.07-13.97,0
		c-1.3,0.02-1.86-0.09-2.04-1.69C172.51,215.65,172.6,214.38,172.16,212.81z"/>
	<path d="M269.77,191.6c0-6.34-0.04-11.56,0.03-16.77c0.02-1.28-0.27-1.71-1.61-1.64c-2.32,0.12-4.65,0-6.98,0.05
		c-0.91,0.02-1.22-0.23-1.2-1.18c0.06-3.31,0.07-6.63-0.01-9.94c-0.03-1.16,0.51-1.21,1.4-1.19c2.26,0.04,4.52-0.07,6.77,0.05
		c1.29,0.06,1.67-0.28,1.64-1.61c-0.09-4.58-0.01-9.16-0.05-13.74c-0.01-1.15,0.3-1.86,1.37-2.5c4.97-2.97,9.87-6.06,14.78-9.13
		c0.41-0.26,0.72-0.74,1.27-0.52c0.73,0.3,0.36,0.98,0.36,1.46c0.03,8.04,0.07,16.07-0.02,24.11c-0.02,1.6,0.4,2.01,1.96,1.94
		c2.96-0.14,5.92,0.02,8.88-0.07c1.21-0.04,1.53,0.34,1.5,1.52c-0.08,3.1-0.08,6.2,0,9.3c0.03,1.21-0.34,1.53-1.52,1.5
		c-3.1-0.08-6.21,0.03-9.31-0.06c-1.21-0.03-1.51,0.34-1.5,1.52c0.05,9.02-0.1,18.05,0.09,27.07c0.08,3.97,1.57,4.88,5.16,5.28
		c1.32,0.15,2.68,0.11,4.02,0c1.18-0.1,1.39,0.39,1.37,1.44c-0.06,2.68-0.16,5.37,0.03,8.03c0.13,1.78-0.69,2.17-2.17,2.43
		c-2.71,0.48-5.43,0.38-8.15,0.39c-3.25,0.01-6.5,0.14-9.66-1.03c-4.62-1.71-7.24-4.97-8.03-9.78
		C269.22,202.54,270.11,196.49,269.77,191.6z"/>
	<path class="st0" d="M204.06,33.98c-0.37,4.09-2.31,7.56-4.63,10.76c-3.89,5.36-9.25,8.74-15.68,10.2
		c-5.41,1.22-10.82,0.99-16.04-1.13c0.21-2.55-0.64-4.82-1.83-7.02c-0.31-0.57-1-1.2-0.35-1.9c2.75-2.92,5.68-5.75,9.51-7.03
		c3.76-1.26,7.82-1.36,11.75-1.93C192.54,35.08,198.29,34.5,204.06,33.98z"/>
	<path class="st1" d="M204.06,33.98c-5.77,0.51-11.52,1.09-17.26,1.94c-3.93,0.58-7.99,0.68-11.75,1.93
		c-3.83,1.28-6.77,4.11-9.51,7.03c-0.66,0.7,0.04,1.33,0.35,1.9c1.19,2.2,2.04,4.46,1.83,7.02c-6.84-2.61-11.81-7.22-14.87-13.88
		c4.5-0.98,8-3.52,11.09-6.83c1.46-1.56,3.28-2.74,5.46-2.89c3.23-0.22,6.46,0.01,9.62,0.72c3.45,0.77,6.94,1.45,10.43,0.78
		c5.15-0.98,10.18-2.55,15.46-2.8C204.41,30.56,204.92,32.39,204.06,33.98z"/>
	<path class="st0" d="M312.05,86.04c-0.24,4.87-2.74,8.62-6.31,11.58c-3.27,2.72-7.24,4.13-11.56,4.06
		c-5.99-0.09-11.03-2.28-14.72-7.16c2.82-1.66,5.93-2.81,8.21-5.36c1.23-1.37,2.83-2.03,4.86-1.92c1.63,0.09,3.29-0.04,4.95,0.05
		c1.25,0.07,2.54,0.09,3.77-0.12C304.83,86.55,308.39,85.84,312.05,86.04z"/>
	<path class="st2" d="M204.9,28.9c-5.28,0.25-10.32,1.82-15.46,2.8c-3.49,0.67-6.99-0.01-10.43-0.78c-3.17-0.71-6.4-0.94-9.62-0.72
		c-2.18,0.15-4,1.32-5.46,2.89c-3.08,3.3-6.59,5.85-11.09,6.83c-1.64-3.04-2.41-6.3-2.42-9.75c4.03-0.27,7.43-2.45,11.14-3.7
		c2.45-0.83,5.03-1.94,7.52-1.58c3.72,0.54,7.48,0.94,11.18,1.71c3.66,0.77,7.41,1.85,11.19,0.38c4.2-1.64,8.61-1.83,13.04-1.89
		C204.42,26.39,205.31,27.57,204.9,28.9z"/>
	<path class="st3" d="M204.48,25.1c-4.43,0.06-8.84,0.25-13.04,1.89c-3.77,1.47-7.52,0.39-11.19-0.38
		c-3.7-0.78-7.46-1.17-11.18-1.71c-2.49-0.36-5.07,0.75-7.52,1.58c-3.71,1.26-7.1,3.43-11.14,3.7c0.02-2.41-0.47-4.84,0.42-7.19
		c3.77,0.38,7.45-0.03,11.19-0.72c2.99-0.55,6.13-1.06,9.19-0.4c2.21,0.47,4.46,0.3,6.68,0.56c1.84,0.22,4.08-0.03,5.62-1.29
		c2.8-2.31,5.77-1.87,8.73-0.86c3.77,1.29,7.54,1.29,11.38,0.59C204.21,22.22,204.75,23.57,204.48,25.1z"/>
	<path class="st0" d="M79.97,82.23c-2.71,8.74-10.09,13.81-18.59,13.47c-5.96-0.24-11.04-2.68-14.4-7.94
		c0.3-0.52,0.81-0.45,1.29-0.46c1.87-0.7,3.42-0.03,4.79,1.21c0.67,0.61,1.31,1.28,1.88,1.99c0.53,0.67,0.86,0.71,1.47,0.04
		c2.76-3.04,6.17-4.98,10.22-5.74C71.09,83.96,75.34,82.13,79.97,82.23z"/>
	<path class="st2" d="M312.05,86.04c-3.66-0.2-7.22,0.51-10.79,1.12c-1.23,0.21-2.52,0.19-3.77,0.12c-1.66-0.09-3.32,0.03-4.95-0.05
		c-2.02-0.11-3.63,0.55-4.86,1.92c-2.28,2.55-5.39,3.7-8.21,5.36c-2.29-2.53-3.5-5.51-3.7-8.9c0.77-0.01,1.51-0.1,2.28-0.27
		c2.45-0.55,4.42-2.09,6.66-3.06c4.13-1.78,8.25-0.6,12.32,0.37c2.18,0.52,4.3,1.32,6.58,0.49c2.86-1.05,5.82-1.48,8.87-1.34
		C312.44,83.23,312.95,84.7,312.05,86.04z"/>
	<path class="st2" d="M48.28,87.31c-0.48,0.01-0.99-0.06-1.29,0.46c-2.05-2.3-2.65-5.2-3.3-8.08c2.71-0.29,5.1-1.47,7.47-2.7
		c2.36-1.23,4.87-1.91,7.52-1.46c2.2,0.38,4.38,0.92,6.51,1.59c2.36,0.74,4.59,0.65,6.7-0.57c2.65-1.53,5.55-1.81,8.5-1.94
		c0,0.99,0,1.97,0,2.96c-2.28-0.07-4.45,0.52-6.51,1.4c-3.58,1.55-7.23,1.8-11.07,1.3c-2.52-0.33-5.22-0.83-7.43,1.16
		c-2.03,1.82-3.92,3.82-6.57,4.8C48.41,86.39,48.3,86.87,48.28,87.31z"/>
	<path class="st1" d="M48.28,87.31c0.02-0.44,0.13-0.91,0.55-1.07c2.65-0.98,4.54-2.98,6.57-4.8c2.2-1.98,4.91-1.49,7.43-1.16
		c3.84,0.5,7.49,0.25,11.07-1.3c2.05-0.89,4.22-1.48,6.51-1.4c0.29,1.59-0.05,3.13-0.42,4.66c-4.63-0.1-8.89,1.73-13.34,2.57
		c-4.06,0.77-7.46,2.71-10.22,5.74c-0.61,0.67-0.94,0.63-1.47-0.04c-0.56-0.71-1.2-1.38-1.88-1.99
		C51.7,87.27,50.16,86.6,48.28,87.31z"/>
	<path class="st4" d="M203.63,20.86c-3.84,0.7-7.61,0.7-11.38-0.59c-2.96-1.01-5.92-1.45-8.73,0.86c-1.54,1.27-3.79,1.51-5.62,1.29
		c-2.22-0.27-4.46-0.09-6.68-0.56c-3.06-0.65-6.21-0.15-9.19,0.4c-3.74,0.69-7.42,1.1-11.19,0.72c0.05-1.65,0.54-3.18,1.27-4.65
		c2.61,0.53,5.23,0.81,7.9,0.86c4.06,0.09,8.12-0.21,12.19,0.31c2.53,0.32,5.18,0.41,7.74-0.32c5.99-1.7,12.1-1.59,18.24-1.13
		c1.41,0.11,2.93,0.07,4.29-0.6C202.83,18.6,203.88,19.52,203.63,20.86z"/>
	<path class="st3" d="M312.47,81.81c-3.05-0.14-6.01,0.29-8.87,1.34c-2.27,0.83-4.39,0.04-6.58-0.49c-4.07-0.98-8.2-2.16-12.32-0.37
		c-2.24,0.97-4.2,2.51-6.66,3.06c-0.77,0.17-1.51,0.26-2.28,0.27c0-1.41,0-2.82,0-4.23c2.34-0.44,4.69-0.76,6.96-1.55
		c2.39-0.84,4.9-1.42,7.45-0.88c3.09,0.65,6,0.4,8.76-1.15c1.39-0.78,2.78-0.86,4.26-0.31c1.12,0.42,2.25,0.98,3.41,1.07
		c1.69,0.13,3.49,1.62,5.12-0.19C312.21,79.46,312.47,80.61,312.47,81.81z"/>
	<path class="st3" d="M80.4,74.61c-2.95,0.13-5.85,0.41-8.5,1.94c-2.11,1.22-4.35,1.31-6.7,0.57c-2.13-0.67-4.32-1.21-6.51-1.59
		c-2.65-0.45-5.16,0.23-7.52,1.46c-2.37,1.24-4.76,2.41-7.47,2.7c0-1.55,0-3.1,0-4.66c2.61-0.48,5.27-0.77,7.8-1.49
		c1.88-0.53,3.72-0.83,5.6-0.55c3.88,0.58,7.63,0.65,11.16-1.49c0.76-0.46,2.06-0.76,2.79-0.43c2.91,1.3,5.93,0.91,8.92,0.99
		C80.11,72.92,80.25,73.77,80.4,74.61z"/>
	<path class="st5" d="M202.48,17.45c-1.36,0.66-2.88,0.7-4.29,0.6c-6.14-0.46-12.25-0.56-18.24,1.13c-2.57,0.73-5.22,0.63-7.74,0.32
		c-4.08-0.51-8.13-0.22-12.19-0.31c-2.67-0.06-5.29-0.34-7.9-0.86c0.52-1.36,0.75-2.87,2-3.84c1.22,0.51,2.28,1.39,3.74,1.31
		c4.28-0.24,8.44,1.03,12.75,1.05c2.05,0.01,4.29,0.25,6.43,0.36c5.26,0.27,10.38-1.48,15.63-1.32c3,0.09,5.98-1.05,8.99-0.14
		C202.11,16.23,202.4,16.79,202.48,17.45z"/>
	<path class="st6" d="M161.33,6.42c1.18-1.24,2.63-2.01,4.25-2.49c1.26,1.31,2.55,2.82,4.47,2.77c1.48-0.03,2.79,0.22,4.19,0.59
		c4.82,1.27,9.77,0.94,14.69,0.87c1.68-0.02,3.26-0.53,4.68-1.46c1.22,0.1,1.84,1.02,2.51,1.86c-0.88,0.54-1.58,1.36-2.69,1.55
		c-2.54,0.43-5.05,0.86-7.68,0.64c-3.34-0.28-6.71,0.6-10.08-0.02c-0.64-0.12-1.47-0.23-1.64,0.8c-0.27,0-0.54-0.01-0.81-0.01
		c-0.03-0.5-0.18-0.97-0.73-1.07c-0.46-0.09-0.5,0.33-0.56,0.66c-0.42,0-0.83,0-1.25,0c-0.44-0.96-1.31-0.83-2.13-0.83
		c-0.28,0-0.56,0-0.84-0.01c-1.41-1.43-3.14-1.86-5.08-1.69c-0.14-0.01-0.27-0.02-0.41-0.02C162.38,7.66,161.7,7.11,161.33,6.42z"/>
	<path class="st7" d="M198.67,11.1c0.75,0.31,0.83,1.11,1.24,1.68c-0.71,1.2-2.21,1.25-3.09,1.18c-3.17-0.27-6.25,0.5-9.42,0.41
		c-4.07-0.11-8.08,1.29-12.29,1.1c-3.53-0.16-7.02-0.72-10.54-0.83c-3.15-0.09-5.84-1.8-8.77-2.68c0.35-1.43,1.62-2.07,2.58-2.98
		c1.89,1.99,4.37,2.91,6.96,3.29c0.91,0.13,1.88,0.21,2.83,0.33c3.33,0.41,6.58,1.26,10.05,0.84c2.73-0.33,5.55-0.52,8.3-0.51
		C190.7,12.91,194.71,12.35,198.67,11.1z"/>
	<path class="st8" d="M155.8,11.95c2.93,0.88,5.63,2.59,8.77,2.68c3.53,0.1,7.01,0.66,10.54,0.83c4.21,0.19,8.22-1.2,12.29-1.1
		c3.17,0.08,6.25-0.68,9.42-0.41c0.88,0.08,2.38,0.03,3.09-1.18c0.68,0.93,1.55,1.76,1.74,2.98c-3.01-0.91-5.98,0.23-8.99,0.14
		c-5.25-0.16-10.38,1.59-15.63,1.32c-2.14-0.11-4.38-0.35-6.43-0.36c-4.31-0.02-8.47-1.29-12.75-1.05c-1.45,0.08-2.52-0.8-3.74-1.31
		C154.36,13.43,155.04,12.67,155.8,11.95z"/>
	<path class="st4" d="M311.72,78.37c-1.63,1.81-3.43,0.32-5.12,0.19c-1.16-0.09-2.29-0.65-3.41-1.07c-1.48-0.55-2.87-0.47-4.26,0.31
		c-2.76,1.55-5.68,1.8-8.76,1.15c-2.55-0.54-5.05,0.04-7.45,0.88c-2.27,0.79-4.62,1.11-6.96,1.55c-0.25-1.37,0.15-2.62,0.73-3.83
		c0.74,0.11,1.44,0.22,2.24,0.13c3.14-0.35,6.36-0.65,9.44-0.63c3.74,0.03,7.33,0.53,10.92-1.04c1.05-0.46,2.39-0.78,3.69-0.49
		c2.77,0.62,5.54,1.3,8.42,0.79C311.25,77.03,311.9,77.6,311.72,78.37z"/>
	<path class="st4" d="M79.97,72.07c-3-0.08-6.01,0.3-8.92-0.99c-0.74-0.33-2.03-0.03-2.79,0.43c-3.54,2.14-7.28,2.07-11.16,1.49
		c-1.88-0.28-3.72,0.02-5.6,0.55c-2.54,0.72-5.2,1.01-7.8,1.49c0.28-1.27,0.56-2.54,0.85-3.81c1.22,0.36,2.41,0.45,3.72,0.27
		c2.17-0.29,4.39-0.45,6.57-0.37c3.72,0.13,7.44,0.52,11.14-0.3c0.62-0.14,1.22-0.15,1.76-0.57c1.22-0.95,2.74-1.08,4.01-0.55
		c2.46,1.03,4.74,0.01,7.09-0.2C79.61,70.18,79.57,71.23,79.97,72.07z"/>
	<path class="st5" d="M311.21,76.31c-2.88,0.51-5.65-0.17-8.42-0.79c-1.3-0.29-2.64,0.03-3.69,0.49c-3.59,1.57-7.19,1.07-10.92,1.04
		c-3.08-0.02-6.3,0.28-9.44,0.63c-0.8,0.09-1.5-0.02-2.24-0.13c0.03-1.15,0.59-2.08,1.27-2.96c3.04,0.15,6.08,0.3,9.12,0.43
		c2.44,0.11,4.9,0.45,7.3,0.2c2.2-0.23,4.42-0.27,6.59-0.63c3.08-0.51,6.22,0.81,9.25-0.41C310.64,74.76,310.9,75.55,311.21,76.31z"
		/>
	<path class="st9" d="M198.67,11.1c-3.95,1.25-7.97,1.81-12.15,1.81c-2.75,0-5.57,0.18-8.3,0.51c-3.47,0.42-6.72-0.43-10.05-0.84
		c-0.95-0.12-1.92-0.19-2.83-0.33c-2.59-0.38-5.07-1.29-6.96-3.29c0.41-0.42,0.83-0.84,1.24-1.26c0.78,0.56,1.56,1.09,2.6,0.85
		c0.14,0,0.27,0.01,0.41,0.02c1.17,2.13,3.28,1.46,5.08,1.69c0.28,0,0.56,0,0.84,0.01c0.28,1.38,1.37,0.67,2.13,0.83
		c0.42,0,0.83,0,1.25,0c0.32,0.47,0.55,1.24,1.29,0.41c0.27,0,0.54,0.01,0.82,0.01c0.81-0.1,1.21,0.78,2.11,0.71
		c2.6-0.19,5.23-0.33,7.83-0.19c1.02,0.05,1.8-0.52,2.78-0.44c3.68,0.32,7.18-0.57,10.61-1.8C197.8,10.24,198.23,10.67,198.67,11.1z
		"/>
	<path class="st5" d="M78.82,69.51c-2.35,0.21-4.63,1.24-7.09,0.2c-1.27-0.53-2.79-0.41-4.01,0.55c-0.54,0.42-1.14,0.43-1.76,0.57
		c-3.7,0.82-7.41,0.44-11.14,0.3c-2.19-0.08-4.4,0.08-6.57,0.37c-1.3,0.18-2.5,0.09-3.72-0.27c0.38-0.86,0.77-1.71,1.15-2.57
		c2.99,0.18,5.98,0.69,8.97,0c0.28,0,0.55,0.01,0.83,0.01c0.23,0.14,0.44,0.35,0.69,0.4c3.38,0.73,6.79,0.61,10.11-0.18
		c1.34-0.32,2.82,0.33,4.02-0.66c0.41-0.01,0.82-0.03,1.23-0.04c2.24,0.63,4.49,0.8,6.75,0.08C78.46,68.69,78.64,69.1,78.82,69.51z"
		/>
	<path class="st10" d="M190.61,4.71c0.98-0.04,1.6,0.56,2.19,1.22c-2.3-0.17-4.17,1.55-6.5,1.4c-4.6-0.3-9.19-0.82-13.64-1.88
		c-1.79-0.43-4.06-0.59-5.38-2.4c1.44-0.84,2.99-1.3,4.67-1.26c0.71,1.26,2.06,1.36,3.24,1.66c1.48,0.37,3.13,0.49,4.47,0.96
		C183.36,5.72,186.93,5.56,190.61,4.71z"/>
	<path class="st11" d="M190.61,4.71c-3.67,0.85-7.25,1.01-10.95-0.29c-1.34-0.47-2.99-0.59-4.47-0.96
		c-1.18-0.29-2.53-0.39-3.24-1.66C178.58,0.12,184.82,0.93,190.61,4.71z"/>
	<path class="st8" d="M310.04,74.17c-3.03,1.22-6.18-0.1-9.25,0.41c-2.17,0.36-4.4,0.4-6.59,0.63c-2.4,0.25-4.87-0.09-7.3-0.2
		c-3.04-0.13-6.08-0.29-9.12-0.43c0.09-1.04,0.83-1.72,1.4-2.5c3.8,1.51,7.77,1.8,11.8,1.64c0.7-0.13,1.39-0.26,2.09-0.39
		c1.13,0.84,2.26,1.6,3.38-0.01c0.21-0.31,0.52-0.38,0.86-0.38c0.42,0.51,0.84,0.51,1.26-0.01c0.28,0,0.57-0.01,0.85-0.01
		c0.33,0.49,0.82,0.4,1.3,0.37c1.72-0.21,3.43-0.48,5.15-0.6c1.01-0.07,2.07,0.22,2.88-0.67C309.13,72.77,309.98,73.23,310.04,74.17
		z"/>
	<path class="st7" d="M71.53,68.2c-0.41,0.01-0.82,0.03-1.23,0.04c-2.57-0.74-5.16-0.3-7.74-0.14c-1.69,0.1-3.34,1.08-5.06-0.06
		c-0.74-0.49-1.46,0.03-2.02,0.62c-0.28,0-0.55-0.01-0.83-0.01c-0.07-0.75-0.66-0.73-1.2-0.89c-2.01-0.61-4.18-0.6-6.07-1.65
		c0.44-0.56,0.52-1.38,1.28-1.69c2.05-0.03,3.5,1.89,5.62,1.69c0.69-0.07,1.48-0.11,2.08,0.15c2.94,1.27,6.08,0.79,8.98,0.46
		c3.63-0.42,7.39-0.17,10.91-1.45c0.29,0.42,0.57,0.84,0.86,1.26c-0.85,0.59-1.62,1.01-2.81,0.66
		C73.39,66.93,72.14,67.01,71.53,68.2z"/>
	<path class="st9" d="M76.26,65.28c-3.52,1.27-7.28,1.03-10.91,1.45c-2.89,0.34-6.03,0.81-8.98-0.46c-0.61-0.26-1.4-0.22-2.08-0.15
		c-2.12,0.2-3.57-1.72-5.62-1.69c0.57-0.74,1.07-1.57,2.13-1.69c1.43,0.57,2.81,1.43,4.29,1.66c4.43,0.67,8.9,1.23,13.39,0.87
		c2.09-0.17,4.28-0.24,6.06-1.66C75.23,64.05,75.83,64.58,76.26,65.28z"/>
	<path class="st12" d="M167.27,3.06c1.32,1.81,3.59,1.97,5.38,2.4c4.45,1.06,9.04,1.58,13.64,1.88c2.33,0.15,4.2-1.58,6.5-1.4
		c0.41,0.11,0.73,0.31,0.82,0.77c-1.42,0.93-2.99,1.44-4.68,1.46c-4.92,0.07-9.86,0.4-14.69-0.87c-1.4-0.37-2.71-0.62-4.19-0.59
		c-1.92,0.05-3.21-1.46-4.47-2.77C166,3.36,166.63,3.19,167.27,3.06z"/>
	<path class="st6" d="M74.54,63.61c-1.78,1.42-3.97,1.49-6.06,1.66c-4.49,0.36-8.96-0.2-13.39-0.87c-1.48-0.22-2.86-1.09-4.29-1.66
		c0.65-0.87,1.53-1.4,2.56-1.7c2.34,2.64,5.69,2.54,8.71,2.86c2.25,0.24,4.62-0.05,6.93-0.11c1.26-0.03,2.99,0.12,3.84-1.45
		C73.69,62.39,74.18,62.91,74.54,63.61z"/>
	<path class="st10" d="M286.24,66.53c0.99-0.83,2.17-1.11,3.42-1.2c0.04,0.13,0.07,0.38,0.12,0.39c2.95,0.25,5.63,1.89,8.66,1.69
		c1.46-0.1,3.04,0.99,4.37-0.44c0.42,0.28,0.85,0.56,1.27,0.84c-0.06,0.82-0.49,1.27-1.33,1.29c-0.58,0.01-1.14,0.04-1.26,0.78
		c-0.26,0.01-0.52,0.01-0.77,0.02c-0.09-0.35-0.23-0.7-0.63-0.74c-2.64-0.24-5.32-0.26-7.92-0.74
		C290.16,68.03,287.87,68.24,286.24,66.53z"/>
	<path class="st12" d="M72.84,62.35c-0.85,1.58-2.58,1.42-3.84,1.45c-2.31,0.06-4.68,0.35-6.93,0.11c-3.03-0.32-6.38-0.22-8.71-2.86
		c0.56-0.65,1.4-0.81,2.11-1.2c0.09,0.85,0.64,1.1,1.42,1.25c2.86,0.55,5.7,1.51,8.58,1.65c2.29,0.11,4.79,0.41,6.98-0.86
		C72.57,62.04,72.71,62.19,72.84,62.35z"/>
	<path class="st13" d="M197.37,9.81c-3.43,1.23-6.93,2.11-10.61,1.8c-0.98-0.08-1.76,0.49-2.78,0.44c-2.6-0.13-5.23,0-7.83,0.19
		c-0.9,0.07-1.31-0.81-2.11-0.71c0.17-1.03,1-0.92,1.64-0.8c3.37,0.63,6.74-0.26,10.08,0.02c2.63,0.22,5.14-0.21,7.68-0.64
		c1.11-0.19,1.81-1.01,2.69-1.55C196.54,8.97,196.95,9.39,197.37,9.81z"/>
	<path class="st9" d="M293.06,73.34c-0.7,0.13-1.39,0.26-2.09,0.39c0.06-1.08-0.6-1.15-1.48-1.27c-3.09-0.43-6.3-0.19-9.19-1.69
		c0.58-0.57,1.16-1.14,1.74-1.71c0.29,1.53,1.74,0.9,2.59,1.25c2.96,1.22,6.05,2.02,9.28,0.91c0.56,0,1.12,0.01,1.69,0.01
		c0.03,1.15,1.62,0.15,1.7,1.23c0,0.16,0,0.32,0.01,0.48c-0.34,0-0.66,0.07-0.86,0.38C295.32,73.74,294.19,72.48,293.06,73.34z"/>
	<path class="st6" d="M295.6,71.25c-0.56,0-1.12-0.01-1.69-0.01c-3.85-0.47-7.56-1.55-11.25-2.73c0.65-0.36,1.07-1.1,1.91-1.15
		c5.06,2.87,10.61,2.65,16.14,2.53c0.26-0.01,0.52-0.01,0.77-0.02c0.29,0.16,0.59,0.33,0.88,0.49c-0.15,0.42-0.3,0.83-0.45,1.25
		c-0.41,0-0.83,0.01-1.24,0.01c-0.2-0.34-0.52-0.4-0.87-0.36c-0.41,0-0.81,0-1.22,0C297.59,71.26,296.6,71.25,295.6,71.25z"/>
	<path class="st10" d="M72.44,61.89c-2.2,1.27-4.69,0.98-6.98,0.86c-2.88-0.14-5.71-1.11-8.58-1.65c-0.79-0.15-1.33-0.4-1.42-1.25
		c0.84-0.22,1.65-0.59,2.56-0.49c0.59,0.85,1.58,0.97,2.42,0.98c1.95,0.01,3.75,0.56,5.54,1.2c1.65,0.59,3.22,0.25,4.75-0.48
		C71.39,61.14,71.99,61.37,72.44,61.89z"/>
	<path class="st11" d="M302.81,66.97c-1.33,1.43-2.91,0.34-4.37,0.44c-3.03,0.2-5.71-1.44-8.66-1.69c-0.05,0-0.08-0.25-0.12-0.39
		C294.23,64.37,298.65,64.6,302.81,66.97z"/>
	<path class="st11" d="M70.73,61.05c-1.53,0.73-3.1,1.07-4.75,0.48c-1.8-0.64-3.59-1.19-5.54-1.2c-0.85,0-1.83-0.13-2.42-0.98
		C62.49,58.19,66.75,58.6,70.73,61.05z"/>
	<path class="st12" d="M300.72,69.89c-5.53,0.12-11.08,0.34-16.14-2.53c0.45-0.5,1.03-0.71,1.67-0.83c1.62,1.71,3.91,1.51,5.93,1.88
		c2.59,0.48,5.27,0.5,7.92,0.74C300.49,69.19,300.63,69.54,300.72,69.89z"/>
	<path class="st7" d="M280.3,70.78c2.89,1.49,6.1,1.26,9.19,1.69c0.88,0.12,1.54,0.19,1.48,1.27c-4.03,0.15-8-0.14-11.8-1.64
		C279.27,71.41,279.83,71.13,280.3,70.78z"/>
	<path class="st8" d="M47.38,66.12c1.88,1.05,4.06,1.04,6.07,1.65c0.54,0.16,1.13,0.14,1.2,0.89c-2.99,0.69-5.98,0.17-8.97,0
		C45.93,67.6,46.63,66.84,47.38,66.12z"/>
	<path class="st13" d="M282.67,68.51c3.68,1.17,7.39,2.26,11.25,2.73c-3.23,1.11-6.32,0.31-9.28-0.91c-0.85-0.35-2.3,0.28-2.59-1.25
		C282.25,68.88,282.46,68.69,282.67,68.51z"/>
	<path class="st9" d="M300.69,71.63c0.41,0,0.83-0.01,1.24-0.01c1.79-0.08,3.68,0.23,5.12-1.26c0.68,0.44,1.28,0.97,1.69,1.67
		c-0.81,0.89-1.87,0.6-2.88,0.67c-1.72,0.12-3.43,0.39-5.15,0.6c-0.01-0.28-0.02-0.56-0.03-0.84
		C300.69,72.18,300.69,71.9,300.69,71.63z"/>
	<path class="st8" d="M71.53,68.2c0.61-1.2,1.85-1.27,2.77-1c1.2,0.35,1.97-0.07,2.81-0.66c0.74,0.34,0.9,1.08,1.17,1.73
		C76.02,69,73.78,68.84,71.53,68.2z"/>
	<path class="st13" d="M307.05,70.35c-1.45,1.48-3.33,1.18-5.12,1.26c0.15-0.42,0.3-0.83,0.45-1.25c0.69-0.01,1.38-0.03,2.07-0.04
		c0.73-0.13,1.47-0.26,2.2-0.39C306.78,70.07,306.92,70.21,307.05,70.35z"/>
	<path class="st12" d="M304.45,70.32c-0.69,0.01-1.38,0.03-2.07,0.04c-0.29-0.16-0.59-0.33-0.88-0.49c0.12-0.74,0.68-0.77,1.26-0.78
		c0.84-0.01,1.27-0.46,1.33-1.29c0.83,0.08,1.32,0.62,1.74,1.27C305.03,69.12,304.56,69.52,304.45,70.32z"/>
	<path class="st13" d="M162.22,8.56c-1.04,0.23-1.83-0.29-2.6-0.85c0.31-0.78,1.17-0.83,1.71-1.29
		C161.7,7.11,162.38,7.66,162.22,8.56z"/>
	<path class="st6" d="M304.45,70.32c0.11-0.8,0.58-1.19,1.37-1.25c0.28,0.29,0.56,0.57,0.84,0.86
		C305.92,70.06,305.18,70.19,304.45,70.32z"/>
	<path d="M14.85,121.62c-0.13,0.41-0.4,0.46-0.75,0.29c0.13-0.19,0.26-0.38,0.39-0.57C14.62,121.43,14.73,121.53,14.85,121.62z"/>
	<path class="st13" d="M167.71,10.27c-1.81-0.23-3.91,0.44-5.08-1.69C164.57,8.41,166.31,8.85,167.71,10.27z"/>
	<path class="st13" d="M173.22,11.52c-0.74,0.83-0.96,0.05-1.29-0.41c0.06-0.33,0.09-0.75,0.56-0.66
		C173.04,10.55,173.19,11.02,173.22,11.52z"/>
	<path class="st13" d="M170.69,11.1c-0.76-0.16-1.85,0.55-2.13-0.83C169.38,10.27,170.24,10.15,170.69,11.1z"/>
	<path class="st8" d="M55.48,68.68c0.56-0.59,1.28-1.11,2.02-0.62c1.72,1.14,3.37,0.16,5.06,0.06c2.58-0.16,5.17-0.61,7.74,0.14
		c-1.2,0.99-2.68,0.34-4.02,0.66c-3.32,0.79-6.73,0.91-10.11,0.18C55.92,69.03,55.71,68.81,55.48,68.68z"/>
	<path class="st7" d="M293.06,73.34c1.12-0.86,2.25,0.4,3.38-0.01C295.32,74.94,294.19,74.19,293.06,73.34z"/>
	<path class="st9" d="M298.6,71.27c0.41,0,0.81,0,1.22,0c0.01,0.4,0.03,0.8,0.04,1.21c-0.15,0.16-0.29,0.31-0.44,0.47
		c-0.28,0-0.57,0.01-0.85,0.01c0-0.15,0-0.31,0-0.46C298.58,72.08,298.59,71.67,298.6,71.27z"/>
	<path class="st7" d="M299.42,72.93c0.15-0.16,0.29-0.31,0.44-0.46c0.28,0,0.56,0,0.83-0.01c0.01,0.28,0.02,0.56,0.03,0.84
		C300.24,73.33,299.75,73.43,299.42,72.93z"/>
	<path class="st7" d="M298.57,72.48c0,0.15,0,0.31,0,0.46c-0.42,0.52-0.84,0.52-1.26,0.01c0-0.16,0-0.32-0.01-0.48
		C297.72,72.48,298.15,72.48,298.57,72.48z"/>
	<path class="st13" d="M298.57,72.48c-0.42,0-0.85,0-1.27,0c-0.08-1.09-1.67-0.09-1.7-1.23c1,0.01,2,0.01,3,0.02
		C298.59,71.67,298.58,72.08,298.57,72.48z"/>
	<path class="st13" d="M300.69,72.46c-0.28,0-0.56,0-0.83,0.01c-0.01-0.4-0.02-0.8-0.04-1.21c0.35-0.03,0.67,0.03,0.87,0.36
		C300.69,71.9,300.69,72.18,300.69,72.46z"/>
</g>
</svg>
