<?xml version="1.0" encoding="utf-8"?>
<!-- Generator: Adobe Illustrator 25.3.0, SVG Export Plug-In . SVG Version: 6.00 Build 0)  -->
<svg version="1.1" id="Layer_1" xmlns="http://www.w3.org/2000/svg" xmlns:xlink="http://www.w3.org/1999/xlink" x="0px" y="0px"
	 viewBox="0 0 360 360" style="enable-background:new 0 0 360 360;" xml:space="preserve">
<style type="text/css">
	.st0{fill:#FFFFFF;}
	.st1{fill:#BA3826;}
	.st2{fill:#231F20;}
</style>
<g>
	<g>
		<path class="st0" d="M35.41,129.36c-13.84,15.49-25.02,32.6-31.19,51.13c-6.33,19.02-6.05,40.96,4.37,58.08
			c7.34,12.05,18.96,20.78,30.59,28.77c32.26,22.14,68.21,41.61,105,56.68c33.79,13.84,78.01,33.44,114.46,18.97
			c21.71-8.62,37.12-28.6,49.06-47.81c26.44-42.55,42.87-91.12,48.52-140.85c4.13-36.35,10.73-99.04-17.26-127.9
			c-19.39-20-51.83-14.6-76.62-11.11c-51.19,7.21-102.34,24.64-147.28,51.39C88.42,82.57,58.29,103.75,35.41,129.36z"/>
	</g>
	<g>
		<g>
			<path class="st0" d="M241.7,129.17l0.74-0.51v-1.76L241.7,129.17z"/>
		</g>
		<g>
			<path class="st1" d="M250.06,89.2c-6.82,0-13.08,2.5-17.86,6.77h-24.51c-6.03,0-11.09,1.42-15.24,4.26
				c-5.4-3.75-11.54-4.32-16.6-4.32h-0.57c-4.32,0.06-8.7,0.06-13.02,0.06h-13.08c-10.69,0-15.81,3.53-19.56,13.42l-0.4,1.02v66.99
				l0.4,1.02c3.81,10.01,8.76,13.36,19.56,13.36c2.79,0,5.57,0,8.3,0.06h8.42c3.75,0,7.51,0,11.26-0.11c3.81,0,5.17,1.14,6.26,3.07
				c1.82,3.07,5.17,4.95,8.98,4.95s7.28-1.93,9.1-4.95c1.31-2.22,2.79-3.01,5.52-3.01h0.34c4.26,0.06,8.47,0.06,12.68,0.06
				c5.69,0,11.43,0,17.17-0.06c11.26,0,18.54-7.28,18.54-18.54v-30.48c12.28-2.62,21.44-13.48,21.44-26.5
				C277.18,101.31,265.07,89.2,250.06,89.2z M236.75,139.92v32.93h-9.38c-3.3,0.06-6.54,0.06-9.84,0.06c-3.24,0-6.48,0-9.72-0.06
				h-0.68c-5.74,0-10.58,1.36-14.67,4.15c-4.09-2.84-9.16-4.21-15.3-4.21h-0.8c-3.75,0.11-7.51,0.11-11.26,0.11h-8.47
				c-2.79-0.06-5.63-0.06-8.42-0.06v-57.89h14.44c4.95,0,9.95,0,14.96-0.06c3.24,0,4.49,1.02,5.52,2.79
				c1.93,3.24,5.46,5.17,9.33,5.17c3.81,0,7.28-1.93,9.21-5.12c1.08-1.76,2.39-2.84,5.63-2.84c2.73,0,5.52,0.06,8.3,0.06
				c0.06,0,0.06,0,0.06,0h7.39c-0.06,0.4-0.06,0.85-0.06,1.31C222.99,126.38,228.51,135.26,236.75,139.92z M250.06,173.24
				c0,8.02-4.78,12.85-12.85,12.85c-5.74,0.06-11.49,0.06-17.17,0.06c-4.21,0-8.36,0-12.57-0.06h-0.46c-4.61,0-7.96,1.71-10.41,5.8
				c-0.85,1.42-2.5,2.16-4.21,2.16c-1.59,0-3.24-0.68-4.04-2.1c-2.5-4.38-6.2-5.91-11.03-5.91h-0.28c-3.7,0.11-7.39,0.11-11.15,0.11
				c-5.57,0-11.15-0.06-16.72-0.06c-8.42,0-11.32-1.99-14.27-9.72v-64.94c2.96-7.73,5.91-9.78,14.27-9.78h13.08
				c4.38,0,8.76,0,13.08-0.06h0.51c6.31,0,12.11,1.02,16.6,6.2c4.21-4.66,9.38-6.14,15.24-6.14h19.56
				c-1.48,2.33-2.62,4.89-3.36,7.62c-5.52-0.06-11.03,0-16.6-0.06c-4.55,0-8.02,1.59-10.46,5.57c-0.97,1.59-2.67,2.39-4.38,2.39
				s-3.47-0.8-4.44-2.45c-2.45-4.04-5.97-5.52-10.46-5.52c-9.95,0.06-19.85,0-29.8,0.06c-3.92,0-5.23,1.25-5.23,5.17v58.68
				c0,4.21,1.25,5.4,5.57,5.4c5.69,0,11.37,0.06,17,0.06c3.81,0,7.62,0,11.37-0.11h0.68c5.91,0,11.2,1.42,15.3,6.08
				c4.04-4.44,8.98-6.03,14.67-6.03h0.63c3.24,0.06,6.54,0.06,9.78,0.06c6.54,0,13.14-0.06,19.68-0.06c3.87,0,5.23-1.37,5.23-5.23
				v-31.05c2.45,0.74,5,1.14,7.62,1.14V173.24z M258.47,129.17l-8.42-6.08l-7.62,5.57l-0.74,0.51l0.74-2.27l2.45-7.56l-2.45-1.76
				l-5.91-4.32h10.35l1.71-5.35l1.48-4.49l3.24,9.84h10.35l-8.42,6.08L258.47,129.17z"/>
		</g>
	</g>
	<g>
		<path class="st2" d="M125.34,238.37h-7.9l-1.31,3.78h-4.18l7.14-19.87h4.63l7.14,19.87h-4.21L125.34,238.37z M124.26,235.19
			l-2.87-8.3l-2.87,8.3H124.26z"/>
		<path class="st2" d="M133.5,230c0.66-1.22,1.58-2.17,2.76-2.84c1.17-0.67,2.52-1.01,4.04-1.01c1.95,0,3.57,0.49,4.85,1.46
			c1.28,0.98,2.14,2.35,2.57,4.11h-4.29c-0.23-0.68-0.61-1.22-1.15-1.61c-0.54-0.39-1.21-0.58-2-0.58c-1.14,0-2.04,0.41-2.7,1.24
			c-0.66,0.83-1,2-1,3.51c0,1.5,0.33,2.66,1,3.48c0.66,0.82,1.56,1.24,2.7,1.24c1.61,0,2.66-0.72,3.16-2.16h4.29
			c-0.44,1.71-1.3,3.06-2.59,4.07c-1.29,1-2.9,1.51-4.83,1.51c-1.52,0-2.86-0.34-4.04-1.01c-1.18-0.67-2.09-1.62-2.76-2.84
			c-0.66-1.22-1-2.65-1-4.28C132.5,232.65,132.83,231.22,133.5,230z"/>
		<path class="st2" d="M150.61,230c0.66-1.22,1.58-2.17,2.76-2.84c1.17-0.67,2.52-1.01,4.04-1.01c1.95,0,3.57,0.49,4.85,1.46
			c1.28,0.98,2.14,2.35,2.57,4.11h-4.29c-0.23-0.68-0.61-1.22-1.15-1.61c-0.54-0.39-1.21-0.58-2-0.58c-1.14,0-2.04,0.41-2.7,1.24
			c-0.66,0.83-1,2-1,3.51c0,1.5,0.33,2.66,1,3.48c0.66,0.82,1.56,1.24,2.7,1.24c1.61,0,2.66-0.72,3.16-2.16h4.29
			c-0.44,1.71-1.3,3.06-2.59,4.07c-1.29,1-2.9,1.51-4.83,1.51c-1.52,0-2.86-0.34-4.04-1.01c-1.18-0.67-2.09-1.62-2.76-2.84
			c-0.66-1.22-1-2.65-1-4.28C149.62,232.65,149.95,231.22,150.61,230z"/>
		<path class="st2" d="M173.74,226.88c0.82-0.47,1.77-0.71,2.83-0.71v4.18h-1.05c-1.25,0-2.19,0.29-2.83,0.88
			c-0.64,0.59-0.95,1.61-0.95,3.07v7.85h-3.98V226.4h3.98v2.45C172.25,228.01,172.92,227.36,173.74,226.88z"/>
		<path class="st2" d="M193.77,235.47h-11.52c0.09,1.14,0.49,2.03,1.19,2.67s1.56,0.97,2.59,0.97c1.48,0,2.53-0.63,3.16-1.91h4.29
			c-0.46,1.52-1.33,2.76-2.62,3.74s-2.87,1.46-4.75,1.46c-1.52,0-2.88-0.34-4.08-1.01c-1.21-0.67-2.14-1.62-2.82-2.86
			c-0.67-1.23-1.01-2.65-1.01-4.26c0-1.63,0.33-3.06,1-4.29c0.66-1.23,1.59-2.18,2.79-2.84c1.19-0.66,2.57-1,4.12-1
			c1.5,0,2.84,0.32,4.02,0.97c1.18,0.64,2.1,1.56,2.76,2.74c0.65,1.18,0.98,2.54,0.98,4.08
			C193.89,234.5,193.85,235.02,193.77,235.47z M189.76,232.8c-0.02-1.02-0.39-1.84-1.11-2.46s-1.6-0.92-2.64-0.92
			c-0.98,0-1.81,0.3-2.49,0.9c-0.67,0.6-1.09,1.43-1.24,2.49H189.76z"/>
		<path class="st2" d="M196.71,229.98c0.63-1.23,1.5-2.18,2.6-2.84c1.1-0.66,2.32-1,3.67-1c1.02,0,2,0.22,2.93,0.67
			c0.93,0.45,1.67,1.04,2.22,1.78v-7.48h4.04v21.04h-4.04v-2.33c-0.49,0.78-1.18,1.4-2.08,1.88c-0.89,0.47-1.92,0.71-3.1,0.71
			c-1.33,0-2.54-0.34-3.64-1.02s-1.97-1.64-2.6-2.89s-0.95-2.67-0.95-4.28C195.76,232.63,196.08,231.22,196.71,229.98z
			 M207.59,231.79c-0.38-0.69-0.89-1.22-1.54-1.59c-0.64-0.37-1.34-0.55-2.08-0.55s-1.42,0.18-2.05,0.54
			c-0.63,0.36-1.13,0.89-1.52,1.58c-0.39,0.69-0.58,1.51-0.58,2.46c0,0.95,0.19,1.78,0.58,2.49c0.39,0.71,0.9,1.26,1.54,1.64
			s1.31,0.57,2.03,0.57c0.74,0,1.43-0.18,2.08-0.55c0.64-0.37,1.16-0.9,1.54-1.59c0.38-0.69,0.57-1.52,0.57-2.49
			S207.97,232.48,207.59,231.79z"/>
		<path class="st2" d="M216.33,223.86c-0.46-0.44-0.7-1-0.7-1.66c0-0.66,0.23-1.22,0.7-1.66c0.46-0.45,1.05-0.67,1.75-0.67
			s1.28,0.22,1.75,0.67c0.46,0.45,0.7,1,0.7,1.66c0,0.66-0.23,1.22-0.7,1.66c-0.46,0.45-1.05,0.67-1.75,0.67
			S216.8,224.3,216.33,223.86z M220.04,226.4v15.75h-3.98V226.4H220.04z"/>
		<path class="st2" d="M228.6,229.67v7.62c0,0.53,0.13,0.92,0.38,1.15c0.26,0.24,0.69,0.36,1.29,0.36h1.85v3.36h-2.5
			c-3.36,0-5.03-1.63-5.03-4.89v-7.59h-1.88v-3.27h1.88v-3.89h4.01v3.89h3.53v3.27H228.6z"/>
		<path class="st2" d="M249.53,235.47h-11.52c0.09,1.14,0.49,2.03,1.19,2.67s1.56,0.97,2.59,0.97c1.48,0,2.53-0.63,3.16-1.91h4.29
			c-0.46,1.52-1.33,2.76-2.62,3.74s-2.87,1.46-4.75,1.46c-1.52,0-2.88-0.34-4.08-1.01c-1.2-0.67-2.14-1.62-2.82-2.86
			c-0.67-1.23-1.01-2.65-1.01-4.26c0-1.63,0.33-3.06,1-4.29c0.66-1.23,1.59-2.18,2.79-2.84c1.19-0.66,2.57-1,4.12-1
			c1.5,0,2.84,0.32,4.02,0.97c1.18,0.64,2.1,1.56,2.76,2.74c0.65,1.18,0.98,2.54,0.98,4.08C249.64,234.5,249.6,235.02,249.53,235.47
			z M245.52,232.8c-0.02-1.02-0.39-1.84-1.11-2.46c-0.72-0.62-1.6-0.92-2.64-0.92c-0.99,0-1.82,0.3-2.49,0.9
			c-0.67,0.6-1.09,1.43-1.24,2.49H245.52z"/>
		<path class="st2" d="M252.47,229.98c0.63-1.23,1.5-2.18,2.6-2.84c1.1-0.66,2.32-1,3.67-1c1.02,0,2,0.22,2.93,0.67
			c0.93,0.45,1.67,1.04,2.22,1.78v-7.48h4.04v21.04h-4.04v-2.33c-0.49,0.78-1.18,1.4-2.08,1.88c-0.89,0.47-1.92,0.71-3.1,0.71
			c-1.33,0-2.54-0.34-3.64-1.02s-1.97-1.64-2.6-2.89s-0.95-2.67-0.95-4.28C251.52,232.63,251.84,231.22,252.47,229.98z
			 M263.35,231.79c-0.38-0.69-0.89-1.22-1.54-1.59c-0.64-0.37-1.34-0.55-2.08-0.55s-1.42,0.18-2.05,0.54
			c-0.63,0.36-1.13,0.89-1.52,1.58c-0.39,0.69-0.58,1.51-0.58,2.46c0,0.95,0.19,1.78,0.58,2.49c0.39,0.71,0.9,1.26,1.54,1.64
			s1.31,0.57,2.03,0.57c0.74,0,1.43-0.18,2.08-0.55c0.64-0.37,1.16-0.9,1.54-1.59c0.38-0.69,0.57-1.52,0.57-2.49
			S263.73,232.48,263.35,231.79z"/>
	</g>
	<g>
		<path class="st2" d="M132.11,262.17c0.88-1.54,2.08-2.75,3.61-3.61c1.53-0.86,3.24-1.29,5.13-1.29c2.22,0,4.16,0.57,5.83,1.71
			c1.67,1.14,2.83,2.71,3.5,4.72h-4.58c-0.46-0.95-1.09-1.66-1.92-2.13c-0.82-0.47-1.78-0.71-2.86-0.71c-1.16,0-2.18,0.27-3.08,0.81
			s-1.6,1.3-2.1,2.29c-0.5,0.99-0.75,2.14-0.75,3.47c0,1.31,0.25,2.46,0.75,3.45c0.5,1,1.2,1.76,2.1,2.3
			c0.9,0.54,1.93,0.81,3.08,0.81c1.08,0,2.03-0.24,2.86-0.72c0.82-0.48,1.46-1.2,1.92-2.15h4.58c-0.66,2.03-1.82,3.61-3.48,4.73
			c-1.66,1.13-3.61,1.69-5.84,1.69c-1.9,0-3.61-0.43-5.13-1.29c-1.53-0.86-2.73-2.06-3.61-3.6s-1.32-3.28-1.32-5.23
			S131.23,263.71,132.11,262.17z"/>
		<path class="st2" d="M156.49,276.61c-1.21-0.67-2.17-1.62-2.86-2.86c-0.69-1.23-1.04-2.65-1.04-4.26c0-1.61,0.36-3.03,1.07-4.26
			c0.71-1.23,1.68-2.18,2.91-2.86c1.23-0.67,2.61-1.01,4.12-1.01s2.89,0.34,4.12,1.01c1.23,0.67,2.2,1.62,2.91,2.86
			c0.71,1.23,1.07,2.65,1.07,4.26c0,1.61-0.37,3.03-1.09,4.26c-0.73,1.23-1.72,2.19-2.96,2.86c-1.24,0.67-2.63,1.01-4.17,1.01
			C159.07,277.62,157.7,277.29,156.49,276.61z M162.62,273.63c0.63-0.35,1.14-0.88,1.52-1.58c0.38-0.7,0.57-1.55,0.57-2.56
			c0-1.5-0.39-2.65-1.18-3.45s-1.75-1.21-2.89-1.21s-2.09,0.4-2.86,1.21s-1.15,1.96-1.15,3.45c0,1.5,0.37,2.65,1.12,3.46
			c0.75,0.81,1.69,1.21,2.83,1.21C161.3,274.15,161.98,273.98,162.62,273.63z"/>
		<path class="st2" d="M186.6,261.62v15.75h-4.01v-1.99c-0.51,0.68-1.18,1.22-2,1.61c-0.82,0.39-1.72,0.58-2.69,0.58
			c-1.23,0-2.32-0.26-3.27-0.78c-0.95-0.52-1.69-1.29-2.23-2.3c-0.54-1.01-0.81-2.22-0.81-3.62v-9.24h3.98v8.67
			c0,1.25,0.31,2.21,0.94,2.89c0.63,0.67,1.48,1.01,2.56,1.01c1.1,0,1.96-0.34,2.59-1.01c0.63-0.67,0.94-1.64,0.94-2.89v-8.67H186.6
			z"/>
		<path class="st2" d="M196.51,262.1c0.82-0.47,1.77-0.71,2.83-0.71v4.18h-1.05c-1.25,0-2.19,0.29-2.83,0.88s-0.95,1.61-0.95,3.07
			v7.85h-3.98v-15.75h3.98v2.45C195.02,263.23,195.68,262.57,196.51,262.1z"/>
		<path class="st2" d="M204.57,276.93c-1.02-0.46-1.83-1.09-2.43-1.89c-0.6-0.8-0.92-1.68-0.98-2.64h4.01
			c0.08,0.61,0.37,1.11,0.9,1.51c0.52,0.4,1.17,0.6,1.95,0.6c0.76,0,1.35-0.15,1.78-0.45c0.43-0.3,0.64-0.69,0.64-1.17
			c0-0.51-0.26-0.9-0.78-1.15s-1.35-0.54-2.49-0.84c-1.18-0.28-2.14-0.58-2.89-0.88c-0.75-0.3-1.39-0.77-1.93-1.39
			c-0.54-0.63-0.81-1.47-0.81-2.53c0-0.87,0.25-1.67,0.75-2.39c0.5-0.72,1.22-1.29,2.16-1.71s2.04-0.63,3.31-0.63
			c1.88,0,3.37,0.47,4.49,1.41c1.12,0.94,1.73,2.2,1.85,3.8h-3.81c-0.06-0.62-0.32-1.12-0.78-1.49c-0.46-0.37-1.09-0.55-1.86-0.55
			c-0.72,0-1.28,0.13-1.66,0.4s-0.58,0.63-0.58,1.11c0,0.53,0.26,0.93,0.8,1.21c0.53,0.28,1.35,0.55,2.47,0.84
			c1.14,0.29,2.08,0.58,2.81,0.88c0.74,0.3,1.38,0.77,1.92,1.41c0.54,0.64,0.82,1.47,0.84,2.52c0,0.91-0.25,1.72-0.75,2.45
			c-0.5,0.72-1.22,1.28-2.16,1.69s-2.03,0.61-3.28,0.61C206.75,277.62,205.59,277.39,204.57,276.93z"/>
		<path class="st2" d="M232.04,270.69h-11.52c0.09,1.14,0.49,2.03,1.19,2.67s1.56,0.97,2.59,0.97c1.48,0,2.53-0.63,3.16-1.91h4.29
			c-0.46,1.52-1.33,2.76-2.62,3.74s-2.87,1.46-4.75,1.46c-1.52,0-2.88-0.34-4.08-1.01c-1.2-0.67-2.14-1.62-2.82-2.86
			c-0.67-1.23-1.01-2.65-1.01-4.26c0-1.63,0.33-3.06,1-4.29c0.66-1.23,1.59-2.18,2.79-2.84c1.19-0.66,2.57-1,4.12-1
			c1.5,0,2.84,0.32,4.02,0.97c1.18,0.64,2.1,1.56,2.76,2.74c0.65,1.18,0.98,2.54,0.98,4.08
			C232.15,269.72,232.11,270.23,232.04,270.69z M228.03,268.01c-0.02-1.02-0.39-1.84-1.11-2.46c-0.72-0.62-1.6-0.92-2.64-0.92
			c-0.99,0-1.82,0.3-2.49,0.9c-0.67,0.6-1.09,1.43-1.24,2.49H228.03z"/>
		<path class="st2" d="M237.61,276.93c-1.02-0.46-1.83-1.09-2.43-1.89c-0.6-0.8-0.92-1.68-0.98-2.64h4.01
			c0.08,0.61,0.37,1.11,0.9,1.51c0.52,0.4,1.17,0.6,1.95,0.6c0.76,0,1.35-0.15,1.78-0.45c0.43-0.3,0.64-0.69,0.64-1.17
			c0-0.51-0.26-0.9-0.78-1.15s-1.35-0.54-2.49-0.84c-1.18-0.28-2.14-0.58-2.89-0.88c-0.75-0.3-1.39-0.77-1.93-1.39
			c-0.54-0.63-0.81-1.47-0.81-2.53c0-0.87,0.25-1.67,0.75-2.39c0.5-0.72,1.22-1.29,2.16-1.71s2.04-0.63,3.31-0.63
			c1.88,0,3.37,0.47,4.49,1.41c1.12,0.94,1.73,2.2,1.85,3.8h-3.81c-0.06-0.62-0.32-1.12-0.78-1.49c-0.46-0.37-1.09-0.55-1.86-0.55
			c-0.72,0-1.28,0.13-1.66,0.4s-0.58,0.63-0.58,1.11c0,0.53,0.26,0.93,0.8,1.21c0.53,0.28,1.35,0.55,2.47,0.84
			c1.14,0.29,2.08,0.58,2.81,0.88c0.74,0.3,1.38,0.77,1.92,1.41c0.54,0.64,0.82,1.47,0.84,2.52c0,0.91-0.25,1.72-0.75,2.45
			c-0.5,0.72-1.22,1.28-2.16,1.69s-2.03,0.61-3.28,0.61C239.79,277.62,238.63,277.39,237.61,276.93z"/>
	</g>
</g>
</svg>
