<?xml version="1.0" encoding="utf-8"?>
<!-- Generator: Adobe Illustrator 25.3.0, SVG Export Plug-In . SVG Version: 6.00 Build 0)  -->
<svg version="1.1" id="Layer_1" xmlns="http://www.w3.org/2000/svg" xmlns:xlink="http://www.w3.org/1999/xlink" x="0px" y="0px"
	 viewBox="0 0 360 80.28" style="enable-background:new 0 0 360 80.28;" xml:space="preserve">
<style type="text/css">
	.st0{fill:#BA3826;}
	.st1{fill:#BC4327;}
	.st2{fill:#BD4A27;}
	.st3{fill:#C05527;}
	.st4{fill:#C76028;}
	.st5{fill:#CE6E29;}
	.st6{fill:#EDAE8A;}
	.st7{fill:#DD8951;}
	.st8{fill:#D67C3A;}
	.st9{fill:#E59767;}
	.st10{fill:#F7CFBE;}
	.st11{fill:#FBDFD7;}
	.st12{fill:#F4C0A7;}
	.st13{fill:#E5A076;}
</style>
<g>
	<g>
		<path d="M139.19,25.22c3.22,0,6.45,0.03,9.67-0.02c0.83-0.01,1.04,0.21,1.04,1.04c-0.03,6.78-0.08,13.57,0,20.35
			c0.05,4.2,2.51,6.71,7.34,5.91c3.03-0.5,4.13-2.7,4.61-4.88c0.27-1.21,0.24-2.41,0.24-3.62c0-5.89,0.02-11.79-0.02-17.68
			c-0.01-0.87,0.17-1.14,1.09-1.12c2.97,0.07,5.94,0.05,8.91,0.01c0.76-0.01,0.99,0.15,0.99,0.96c-0.03,10.9-0.03,21.79,0,32.69
			c0,0.76-0.15,1.01-0.96,0.99c-2.97-0.06-5.94-0.04-8.91-0.01c-0.65,0.01-0.86-0.15-0.87-0.83c-0.01-0.8,0.31-1.67-0.26-2.45
			c-2.08,2.63-4.81,3.79-8.04,4.04c-2.61,0.2-5.17,0.15-7.67-0.76c-4.03-1.47-6.22-4.41-6.92-8.56c-0.03-0.18-0.05-0.33-0.26-0.36
			C139.19,42.35,139.19,33.79,139.19,25.22z"/>
		<path d="M192.15,76.87c-3.43-1.69-4.59-5.11-2.82-8.3c0.98-1.77,3.45-2.9,5.59-2.35c2.15,0.55,3.49,1.69,3.86,3.94
			c0.56,3.45-0.73,5.63-3.58,6.72C194.19,76.87,193.17,76.87,192.15,76.87z M190.62,71.22c-0.04,1.71,0.32,3.14,1.87,3.85
			c1.62,0.74,3.25,0.13,4-1.34c0.98-1.9,0.49-4.58-0.96-5.49c-1.08-0.68-2.28-0.79-3.28-0.17
			C191.15,68.76,190.43,69.88,190.62,71.22z"/>
		<path d="M172.8,76.87c0-3.18,0.02-6.36-0.02-9.54c-0.01-0.71,0.18-0.93,0.9-0.92c0.71,0,0.92,0.19,0.92,0.91
			c0,1.04-0.5,2.47,0.21,3.02c0.66,0.52,2.02,0.16,3.08,0.16c1.78,0.01,1.78,0,1.78-1.78c0-0.38,0.05-0.77-0.01-1.14
			c-0.16-0.96,0.21-1.23,1.16-1.18c0.72,0.04,0.91,0.22,0.9,0.93c-0.04,3.18-0.02,6.36-0.02,9.54c-0.68,0-1.36,0-2.04,0
			c0-0.25,0.01-0.51,0-0.76c-0.08-1.34,0.59-3.23-0.26-3.87c-0.89-0.68-2.68-0.16-4.07-0.22c-0.61-0.03-0.8,0.17-0.78,0.78
			c0.04,1.35,0.01,2.71,0.01,4.07C173.99,76.87,173.39,76.87,172.8,76.87z"/>
		<path d="M207.93,76.87c-0.97-0.53-2.18-0.82-2.51-2.06c-0.1-0.36-0.72-0.95-0.1-1.17c0.53-0.18,1.43-0.46,1.8,0.35
			c0.68,1.46,1.91,1.46,3.19,1.33c0.63-0.07,1.16-0.33,1.24-1.14c0.07-0.72-0.12-1.16-0.79-1.52c-0.93-0.49-1.96-0.54-2.93-0.88
			c-1.88-0.67-2.5-1.58-2.2-3.44c0.18-1.12,1.51-2.1,2.98-2.17c1.53-0.08,3.02,0.01,4.09,1.34c0.39,0.49,0.94,1.2,0.39,1.58
			c-0.44,0.3-1.4,0.52-1.92-0.47c-0.46-0.88-2.07-1.33-2.87-0.87c-0.39,0.23-0.95,0.54-0.87,1.14c0.09,0.72,0.59,1.18,1.29,1.32
			c1.05,0.21,2.08,0.43,3.04,0.92c1.42,0.72,1.9,1.47,1.75,3.04c-0.12,1.31-1,2.03-2.18,2.42c-0.16,0.05-0.32,0.05-0.36,0.26
			C209.97,76.87,208.95,76.87,207.93,76.87z"/>
		<path d="M256.31,76.87c0.44-2.21,1.44-4.23,2.16-6.34c0.41-1.19,1.01-2.32,1.34-3.53c0.17-0.62,0.48-0.63,0.87-0.54
			c0.62,0.14,1.47-0.49,1.85,0.49c1.24,3.18,2.47,6.36,3.7,9.55c0.04,0.11,0.01,0.25,0.01,0.38c-0.68,0-1.36,0-2.04,0
			c-0.11-0.99-0.6-1.83-0.98-2.72c-0.13-0.31-0.31-0.33-0.57-0.33c-1.01,0-2.02,0.04-3.02-0.02c-0.48-0.02-0.56,0.29-0.67,0.57
			c-0.31,0.82-0.58,1.66-0.87,2.5C257.5,76.87,256.91,76.87,256.31,76.87z M262.63,72.28c-0.56-1.31-0.82-2.65-1.58-3.86
			c-0.48,1.35-0.91,2.58-1.36,3.86C260.72,72.28,261.61,72.28,262.63,72.28z"/>
		<path d="M220.41,76.87c0-3.13,0.02-6.26-0.02-9.39c-0.01-0.77,0.11-1.16,1.01-1.06c1.66,0.18,3.36-0.27,5,0.24
			c1.53,0.48,2.1,1.57,1.9,3.56c-0.1,1.09-1.33,2.2-2.57,2.31c-1.16,0.1-2.85-0.52-3.36,0.25c-0.59,0.88-0.17,2.44-0.18,3.7
			c0,0.13,0,0.25,0,0.38C221.6,76.87,221.01,76.87,220.41,76.87z M223.79,71.02c0.53,0,0.96,0.05,1.37-0.01
			c1.12-0.17,1.63-1.2,1.12-2.18c-0.4-0.76-3.24-1.55-3.92-1.09c-0.06,0.04-0.15,0.13-0.15,0.19c-0.01,0.97-0.18,1.98,0.07,2.88
			C222.42,71.32,223.34,70.91,223.79,71.02z"/>
		<path d="M313.09,76.87c-0.15-1.64,0.43-3.36-0.53-4.91c-1.09-1.77-2.2-3.53-3.31-5.3c1.74-0.51,2-0.4,2.82,1.02
			c0.64,1.12,1.32,2.23,2.02,3.41c0.66-1.08,1.46-2.04,1.89-3.14c0.56-1.44,1.5-1.76,2.9-1.42c-0.93,1.55-1.75,3.22-2.86,4.65
			c-0.97,1.26-1.29,2.54-1.16,4.04c0.05,0.55,0.01,1.1,0.01,1.65C314.28,76.87,313.68,76.87,313.09,76.87z"/>
		<path d="M298.07,76.87c0-2.63-0.03-5.26,0.02-7.88c0.02-0.83-0.21-1.14-1.04-1.03c-0.46,0.06-0.93-0.01-1.4,0.02
			c-0.55,0.02-0.93,0.02-0.93-0.77c0-0.79,0.38-0.77,0.93-0.77c2.29,0.01,4.58,0.01,6.87,0c0.55,0,0.93-0.02,0.93,0.77
			c0,0.79-0.37,0.76-0.93,0.77c-2.42,0.04-2.42,0.05-2.42,2.54c0,2.12,0,4.24,0,6.36C299.43,76.87,298.75,76.87,298.07,76.87z"/>
		<path d="M272.61,76.87c0-3.18,0.04-6.36-0.03-9.54c-0.02-0.9,0.38-0.91,1.05-0.91c0.68,0,1.07,0.02,1.04,0.91
			c-0.07,2.37,0,4.75-0.04,7.12c-0.01,0.73,0.2,0.95,0.92,0.9c0.97-0.06,1.96,0.08,2.92-0.04c1.29-0.16,1.77,0.29,1.52,1.55
			C277.53,76.87,275.07,76.87,272.61,76.87z"/>
		<path d="M246.89,76.87c0-2.63-0.03-5.26,0.02-7.88c0.02-0.83-0.2-1.14-1.04-1.03c-0.46,0.06-0.93-0.01-1.4,0.02
			c-0.55,0.02-0.93,0.02-0.93-0.77c0-0.79,0.38-0.77,0.93-0.77c2.29,0.01,4.58,0.01,6.87,0c0.55,0,0.93-0.02,0.93,0.77
			c0,0.78-0.37,0.76-0.93,0.77c-2.67,0.05-2.67,0.06-2.67,2.79c0,2.03,0,4.07,0,6.1C248.08,76.87,247.49,76.87,246.89,76.87z"/>
		<path d="M286.36,76.87c0-3.18,0.04-6.36-0.03-9.54c-0.02-0.9,0.37-0.91,1.04-0.91c0.67,0,1.06,0.02,1.04,0.91
			c-0.06,3.18-0.03,6.36-0.03,9.54C287.71,76.87,287.04,76.87,286.36,76.87z"/>
		<path d="M235.18,76.87c0-3.18,0.02-6.36-0.02-9.54c-0.01-0.72,0.19-0.92,0.91-0.92c0.72,0,0.92,0.2,0.91,0.92
			c-0.04,3.18-0.02,6.36-0.02,9.54C236.37,76.87,235.77,76.87,235.18,76.87z"/>
		<path d="M189.65,57.15c-0.16,2.68-0.16,2.68-2.87,2.68c-2.33,0-4.67-0.01-7,0.01c-0.58,0.01-0.9-0.04-0.89-0.79
			c0.02-17.67,0.02-35.35,0.02-53.2c2.28,1.46,4.45,2.82,6.6,4.23c1.16,0.77,2.27,1.62,3.52,2.26c0.61,0.31,0.87,0.79,0.86,1.58
			c-0.06,4.74-0.03,9.48-0.03,14.34c1.96-2.24,4.46-3.32,7.18-3.75c3-0.48,6.01-0.36,8.96,0.65c5.08,1.74,7.87,5.49,9.3,10.42
			c0.77,2.67,1.01,5.44,0.75,8.19c-0.48,5.09-1.96,9.82-6.01,13.29c-2.49,2.14-5.41,3.31-8.74,3.57c-2.34,0.19-4.59,0.06-6.86-0.51
			C192.51,59.61,190.97,58.57,189.65,57.15z M189.34,42.23c0.02,1.57-0.05,2.82,0.25,4.06c0.51,2.16,1.23,4.19,3.24,5.42
			c1.65,1,3.43,1.32,5.4,1.03c3.01-0.45,4.84-2.1,5.92-4.88c1.14-2.92,1.26-5.9,0.72-8.92c-0.49-2.71-1.68-4.95-4.41-6.11
			c-1.49-0.63-3.03-0.53-4.55-0.45c-2.33,0.12-4.19,1.15-5.28,3.31C189.53,37.84,189.24,40.16,189.34,42.23z"/>
		<path d="M344.52,56.57c-1.99,2.72-4.76,3.7-7.91,4.04c-2.38,0.25-4.7,0.15-6.98-0.53c-4.18-1.24-6.63-4.08-7.63-8.27
			c-0.36-1.51-0.43-3.07-0.45-4.58c-0.11-6.95-0.03-13.91-0.07-20.86c-0.01-0.94,0.2-1.2,1.17-1.18c2.93,0.07,5.86,0.06,8.78,0.01
			c0.83-0.01,1.05,0.21,1.04,1.04c-0.04,6.87-0.05,13.74,0,20.61c0.02,2.37,0.85,4.43,3.23,5.38c2.53,1.01,4.97,0.59,7.07-1.11
			c1.04-0.84,1.35-2.21,1.65-3.49c0.36-1.53,0.26-3.09,0.26-4.64c0-5.56,0.02-11.11-0.02-16.67c-0.01-0.87,0.17-1.15,1.09-1.12
			c2.8,0.07,5.6,0.07,8.4,0c0.97-0.02,1.25,0.21,1.25,1.22c-0.05,8.86-0.08,17.73,0.02,26.59c0.02,2.01,0.19,4.03,0.23,6.05
			c0.01,0.6-0.15,0.79-0.77,0.79c-3.05-0.03-6.11-0.03-9.17,0c-0.61,0.01-0.82-0.16-0.78-0.78
			C344.96,58.24,344.99,57.4,344.52,56.57z"/>
		<path d="M270.39,29c2.26-2.9,5.22-4.11,8.67-4.57c2.36-0.31,4.62-0.12,6.86,0.55c4.19,1.25,6.55,4.19,7.56,8.33
			c0.38,1.54,0.53,3.1,0.52,4.7c-0.03,6.91-0.03,13.82,0.01,20.73c0,0.86-0.15,1.15-1.08,1.13c-2.8-0.07-5.6-0.06-8.4,0
			c-0.95,0.02-1.27-0.17-1.26-1.21c0.06-6.57,0.04-13.14,0.01-19.71c0-0.91-0.08-1.85-0.34-2.71c-0.58-1.92-1.67-3.32-3.86-3.68
			c-1.68-0.28-3.29-0.33-4.87,0.31c-2.61,1.05-3.4,3.3-3.63,5.81c-0.59,6.71-0.15,13.44-0.25,20.16c-0.01,0.83-0.21,1.05-1.04,1.04
			c-2.93-0.05-5.85-0.04-8.78,0c-0.72,0.01-0.91-0.19-0.91-0.91c0.02-10.94,0.02-21.87,0-32.81c0-0.7,0.16-0.93,0.9-0.92
			c2.88,0.04,5.77,0.02,8.65,0.01c0.52,0,0.79,0,0.98,0.73C270.39,26.95,270.15,27.94,270.39,29z"/>
		<path d="M242.69,56.4c-2.31,3.01-5.26,4.07-8.79,4.25c-3.71,0.19-7.1-0.3-10.12-2.59c-2.01-1.52-3-3.66-3.6-6
			c-0.39-1.53-0.55-3.1-0.55-4.69c0.03-7,0.03-13.99-0.01-20.99c-0.01-0.94,0.2-1.2,1.17-1.18c2.84,0.07,5.69,0.06,8.53,0.01
			c0.83-0.02,1.05,0.21,1.04,1.04c-0.04,6.15-0.02,12.3-0.02,18.44c0,1.34,0.24,2.63,0.49,3.93c0.65,3.36,3.8,4.42,6.37,4.05
			c4.15-0.6,5.06-3,5.35-6.14c0.62-6.67,0.14-13.36,0.24-20.03c0.01-1.05,0.23-1.34,1.3-1.31c2.84,0.09,5.69,0.05,8.53,0.01
			c0.72-0.01,0.91,0.19,0.91,0.91c-0.02,10.94-0.02,21.88,0,32.82c0,0.72-0.19,0.92-0.91,0.91c-2.8-0.04-5.6-0.04-8.4,0
			c-0.78,0.01-1.12-0.05-1.23-1.02C242.91,58.11,242.96,57.35,242.69,56.4z"/>
		<path d="M301.38,43.65c0-3.81-0.03-6.95,0.02-10.08c0.01-0.77-0.16-1.03-0.97-0.98c-1.4,0.07-2.8,0-4.2,0.03
			c-0.55,0.01-0.73-0.14-0.72-0.71c0.03-1.99,0.04-3.98,0-5.97c-0.02-0.7,0.31-0.73,0.84-0.72c1.36,0.03,2.72-0.04,4.07,0.03
			c0.78,0.04,1-0.17,0.99-0.97c-0.06-2.75-0.01-5.51-0.03-8.26c-0.01-0.69,0.18-1.12,0.82-1.5c2.99-1.79,5.93-3.64,8.88-5.49
			c0.25-0.15,0.43-0.45,0.77-0.31c0.44,0.18,0.22,0.59,0.22,0.88c0.02,4.83,0.04,9.66-0.01,14.49c-0.01,0.96,0.24,1.21,1.18,1.16
			c1.78-0.08,3.56,0.01,5.34-0.04c0.73-0.02,0.92,0.21,0.9,0.92c-0.05,1.86-0.05,3.73,0,5.59c0.02,0.73-0.2,0.92-0.92,0.9
			c-1.86-0.05-3.73,0.02-5.6-0.03c-0.73-0.02-0.91,0.2-0.9,0.91c0.03,5.42-0.06,10.85,0.05,16.27c0.05,2.39,0.94,2.93,3.1,3.17
			c0.8,0.09,1.61,0.06,2.41,0c0.71-0.06,0.84,0.23,0.82,0.86c-0.04,1.61-0.1,3.23,0.02,4.83c0.08,1.07-0.42,1.31-1.3,1.46
			c-1.63,0.29-3.26,0.23-4.9,0.24c-1.96,0.01-3.91,0.09-5.81-0.62c-2.78-1.03-4.36-2.99-4.83-5.88
			C301.05,50.23,301.58,46.59,301.38,43.65z"/>
		<path d="M148.12,1.58c-0.08,0.24-0.24,0.27-0.45,0.18c0.08-0.12,0.16-0.23,0.23-0.35C147.98,1.47,148.05,1.52,148.12,1.58z"/>
	</g>
	<g>
		<path d="M4.52,61.42c2.85-2.07,6.04-3.32,9.47-4.08c2.48-0.55,4.98-0.56,7.46-0.42c2.57,0.15,5.07,0.83,7.45,1.87
			c0.92,0.4,1.85,0.77,2.68,1.33c0.33,0.22,0.39-0.01,0.52-0.21c0.79-1.21,1.57-2.42,2.49-3.55c1.37-1.69,2.78-3.33,4.43-4.77
			c1.49-1.31,3.02-2.55,4.67-3.64c3.95-2.61,8.26-4.46,12.85-5.58c4.09-1,8.27-1.19,12.44-0.94c4.19,0.26,8.23,1.27,12.15,2.83
			c3.45,1.37,6.6,3.24,9.51,5.5c2.24,1.74,4.27,3.72,6.05,5.96c1.18,1.48,2.25,3.03,3.25,4.63c0.24,0.39,0.4,0.29,0.63,0.15
			c2.66-1.62,5.51-2.67,8.61-3.16c5.11-0.81,9.92-0.03,14.47,2.38c0.81,0.43,1.62,0.89,2.35,1.54c-0.45,0.24-0.69-0.14-1-0.24
			c-1.92-0.59-3.86-1.06-5.88-1.29c-4.61-0.51-8.92,0.41-12.99,2.55c-2.61,1.37-4.74,3.33-6.71,5.47c-0.49,0.53-0.74,0.4-1.03-0.11
			c-1.25-2.23-2.67-4.36-4.3-6.32c-1.9-2.29-4.07-4.3-6.49-6.04c-3.24-2.32-6.75-4.09-10.56-5.3c-2.12-0.67-4.28-1.09-6.48-1.43
			c-2.26-0.35-4.53-0.4-6.79-0.27c-4.04,0.24-7.95,1.14-11.71,2.67c-3.14,1.28-6.06,2.94-8.73,5.02c-2.63,2.06-4.96,4.44-6.94,7.14
			c-0.98,1.33-1.8,2.76-2.7,4.13c-0.11,0.17-0.25,0.32-0.39,0.49c-2.34-2.16-4.69-4.25-7.56-5.64c-2.3-1.11-4.7-1.91-7.26-2.21
			c-0.88-0.11-1.76-0.25-2.64-0.28c-3.86-0.11-7.58,0.64-11.21,1.91C4.61,61.49,4.57,61.46,4.52,61.42z"/>
		<path class="st0" d="M76,28.48c-0.14,1.54-0.87,2.85-1.74,4.06c-1.47,2.02-3.49,3.3-5.91,3.85c-2.04,0.46-4.08,0.37-6.05-0.43
			c0.08-0.96-0.24-1.82-0.69-2.65c-0.12-0.21-0.38-0.45-0.13-0.72c1.04-1.1,2.14-2.17,3.59-2.65c1.42-0.47,2.95-0.51,4.43-0.73
			C71.66,28.89,73.83,28.67,76,28.48z"/>
		<path class="st1" d="M76,28.48c-2.17,0.19-4.34,0.41-6.51,0.73c-1.48,0.22-3.01,0.25-4.43,0.73c-1.44,0.48-2.55,1.55-3.59,2.65
			c-0.25,0.26,0.02,0.5,0.13,0.72c0.45,0.83,0.77,1.68,0.69,2.65c-2.58-0.98-4.45-2.72-5.61-5.23c1.7-0.37,3.02-1.33,4.18-2.57
			c0.55-0.59,1.24-1.03,2.06-1.09c1.22-0.08,2.43,0,3.63,0.27c1.3,0.29,2.62,0.55,3.93,0.29c1.94-0.37,3.84-0.96,5.83-1.06
			C76.14,27.19,76.33,27.88,76,28.48z"/>
		<path class="st0" d="M116.72,48.11c-0.09,1.84-1.03,3.25-2.38,4.37c-1.23,1.03-2.73,1.56-4.36,1.53c-2.26-0.03-4.16-0.86-5.55-2.7
			c1.06-0.63,2.24-1.06,3.1-2.02c0.46-0.52,1.07-0.77,1.83-0.73c0.62,0.03,1.24-0.02,1.87,0.02c0.47,0.03,0.96,0.03,1.42-0.05
			C114,48.3,115.34,48.03,116.72,48.11z"/>
		<path class="st2" d="M76.32,26.56c-1.99,0.09-3.89,0.69-5.83,1.06c-1.32,0.25-2.63,0-3.93-0.29c-1.19-0.27-2.41-0.35-3.63-0.27
			c-0.82,0.06-1.51,0.5-2.06,1.09c-1.16,1.25-2.48,2.21-4.18,2.57c-0.62-1.15-0.91-2.38-0.91-3.68c1.52-0.1,2.8-0.92,4.2-1.4
			c0.92-0.31,1.9-0.73,2.84-0.6c1.4,0.2,2.82,0.35,4.22,0.65c1.38,0.29,2.8,0.7,4.22,0.14c1.58-0.62,3.25-0.69,4.92-0.71
			C76.14,25.62,76.47,26.06,76.32,26.56z"/>
		<path class="st3" d="M76.16,25.13c-1.67,0.02-3.33,0.09-4.92,0.71c-1.42,0.55-2.84,0.15-4.22-0.14c-1.4-0.29-2.81-0.44-4.22-0.65
			c-0.94-0.14-1.91,0.28-2.84,0.6c-1.4,0.47-2.68,1.29-4.2,1.4c0.01-0.91-0.18-1.83,0.16-2.71c1.42,0.14,2.81-0.01,4.22-0.27
			c1.13-0.21,2.31-0.4,3.47-0.15c0.84,0.18,1.68,0.11,2.52,0.21c0.69,0.08,1.54-0.01,2.12-0.49c1.06-0.87,2.18-0.71,3.29-0.32
			c1.42,0.49,2.84,0.49,4.29,0.22C76.06,24.04,76.26,24.55,76.16,25.13z"/>
		<path class="st0" d="M29.21,46.67c-1.02,3.3-3.8,5.21-7.01,5.08c-2.25-0.09-4.16-1.01-5.43-2.99c0.11-0.2,0.31-0.17,0.49-0.17
			c0.71-0.27,1.29-0.01,1.81,0.46c0.25,0.23,0.5,0.48,0.71,0.75c0.2,0.25,0.32,0.27,0.55,0.02c1.04-1.15,2.33-1.88,3.86-2.17
			C25.86,47.33,27.47,46.63,29.21,46.67z"/>
		<path class="st2" d="M116.72,48.11c-1.38-0.07-2.72,0.19-4.07,0.42c-0.46,0.08-0.95,0.07-1.42,0.05
			c-0.62-0.04-1.25,0.01-1.87-0.02c-0.76-0.04-1.37,0.21-1.83,0.73c-0.86,0.96-2.03,1.39-3.1,2.02c-0.86-0.95-1.32-2.08-1.4-3.36
			c0.29-0.01,0.57-0.04,0.86-0.1c0.92-0.21,1.67-0.79,2.51-1.15c1.56-0.67,3.11-0.23,4.65,0.14c0.82,0.2,1.62,0.5,2.48,0.18
			c1.08-0.39,2.2-0.56,3.34-0.51C116.87,47.05,117.06,47.61,116.72,48.11z"/>
		<path class="st2" d="M17.26,48.59c-0.18,0.01-0.37-0.02-0.49,0.17c-0.77-0.87-1-1.96-1.24-3.04c1.02-0.11,1.92-0.55,2.81-1.02
			c0.89-0.46,1.84-0.72,2.83-0.55c0.83,0.14,1.65,0.35,2.46,0.6c0.89,0.28,1.73,0.24,2.53-0.22c1-0.58,2.09-0.68,3.21-0.73
			c0,0.37,0,0.74,0,1.12c-0.86-0.03-1.68,0.2-2.45,0.53c-1.35,0.58-2.73,0.68-4.18,0.49c-0.95-0.12-1.97-0.31-2.8,0.44
			c-0.76,0.69-1.48,1.44-2.48,1.81C17.31,48.24,17.27,48.42,17.26,48.59z"/>
		<path class="st1" d="M17.26,48.59c0.01-0.17,0.05-0.34,0.21-0.4c1-0.37,1.71-1.12,2.48-1.81c0.83-0.75,1.85-0.56,2.8-0.44
			c1.45,0.19,2.82,0.09,4.18-0.49c0.77-0.33,1.59-0.56,2.45-0.53c0.11,0.6-0.02,1.18-0.16,1.76c-1.75-0.04-3.35,0.65-5.03,0.97
			c-1.53,0.29-2.81,1.02-3.86,2.17c-0.23,0.25-0.35,0.24-0.55-0.02c-0.21-0.27-0.45-0.52-0.71-0.75
			C18.55,48.57,17.97,48.32,17.26,48.59z"/>
		<path class="st4" d="M75.84,23.53c-1.45,0.26-2.87,0.26-4.29-0.22c-1.12-0.38-2.23-0.55-3.29,0.32c-0.58,0.48-1.43,0.57-2.12,0.49
			c-0.84-0.1-1.68-0.03-2.52-0.21c-1.15-0.25-2.34-0.06-3.47,0.15c-1.41,0.26-2.8,0.41-4.22,0.27c0.02-0.62,0.2-1.2,0.48-1.75
			c0.98,0.2,1.97,0.3,2.98,0.33c1.53,0.03,3.06-0.08,4.6,0.12c0.95,0.12,1.95,0.15,2.92-0.12c2.26-0.64,4.56-0.6,6.88-0.43
			c0.53,0.04,1.1,0.03,1.62-0.22C75.54,22.68,75.93,23.02,75.84,23.53z"/>
		<path class="st3" d="M116.88,46.51c-1.15-0.05-2.26,0.11-3.34,0.51c-0.86,0.31-1.66,0.01-2.48-0.18
			c-1.54-0.37-3.09-0.81-4.65-0.14c-0.84,0.36-1.58,0.95-2.51,1.15c-0.29,0.06-0.57,0.1-0.86,0.1c0-0.53,0-1.06,0-1.6
			c0.88-0.17,1.77-0.29,2.62-0.58c0.9-0.32,1.85-0.54,2.81-0.33c1.16,0.25,2.26,0.15,3.3-0.43c0.52-0.29,1.05-0.32,1.6-0.12
			c0.42,0.16,0.85,0.37,1.29,0.4c0.64,0.05,1.32,0.61,1.93-0.07C116.79,45.63,116.88,46.06,116.88,46.51z"/>
		<path class="st3" d="M29.37,43.8c-1.11,0.05-2.21,0.15-3.21,0.73c-0.8,0.46-1.64,0.49-2.53,0.22c-0.8-0.25-1.63-0.46-2.46-0.6
			c-1-0.17-1.94,0.09-2.83,0.55c-0.89,0.47-1.79,0.91-2.81,1.02c0-0.59,0-1.17,0-1.76c0.98-0.18,1.99-0.29,2.94-0.56
			c0.71-0.2,1.4-0.31,2.11-0.21c1.46,0.22,2.88,0.25,4.21-0.56c0.29-0.17,0.78-0.29,1.05-0.16c1.1,0.49,2.23,0.34,3.36,0.37
			C29.26,43.16,29.32,43.48,29.37,43.8z"/>
		<path class="st5" d="M75.41,22.25c-0.51,0.25-1.09,0.26-1.62,0.22c-2.32-0.17-4.62-0.21-6.88,0.43c-0.97,0.27-1.97,0.24-2.92,0.12
			c-1.54-0.19-3.07-0.08-4.6-0.12c-1.01-0.02-2-0.13-2.98-0.33c0.2-0.51,0.28-1.08,0.76-1.45c0.46,0.19,0.86,0.52,1.41,0.49
			c1.61-0.09,3.18,0.39,4.81,0.4c0.77,0,1.62,0.1,2.43,0.14c1.98,0.1,3.91-0.56,5.89-0.5c1.13,0.04,2.26-0.4,3.39-0.05
			C75.27,21.78,75.38,22,75.41,22.25z"/>
		<path class="st6" d="M59.89,18.09c0.44-0.47,0.99-0.76,1.6-0.94c0.48,0.49,0.96,1.06,1.69,1.05c0.56-0.01,1.05,0.08,1.58,0.22
			c1.82,0.48,3.68,0.35,5.54,0.33c0.63-0.01,1.23-0.2,1.76-0.55c0.46,0.04,0.69,0.38,0.95,0.7c-0.33,0.2-0.59,0.51-1.01,0.58
			c-0.96,0.16-1.9,0.32-2.9,0.24c-1.26-0.11-2.53,0.23-3.8-0.01c-0.24-0.04-0.56-0.09-0.62,0.3c-0.1,0-0.2,0-0.31,0
			c-0.01-0.19-0.07-0.37-0.27-0.4c-0.17-0.03-0.19,0.12-0.21,0.25c-0.16,0-0.31,0-0.47,0c-0.17-0.36-0.49-0.31-0.8-0.31
			c-0.11,0-0.21,0-0.32,0c-0.53-0.54-1.19-0.7-1.92-0.64c-0.05,0-0.1-0.01-0.15-0.01C60.29,18.55,60.03,18.34,59.89,18.09z"/>
		<path class="st7" d="M73.97,19.85c0.28,0.12,0.31,0.42,0.47,0.63c-0.27,0.45-0.83,0.47-1.16,0.44c-1.2-0.1-2.36,0.19-3.55,0.16
			c-1.53-0.04-3.05,0.49-4.63,0.41c-1.33-0.06-2.65-0.27-3.98-0.31c-1.19-0.03-2.2-0.68-3.31-1.01c0.13-0.54,0.61-0.78,0.97-1.12
			c0.71,0.75,1.65,1.1,2.63,1.24c0.34,0.05,0.71,0.08,1.07,0.12c1.26,0.15,2.48,0.47,3.79,0.32c1.03-0.13,2.09-0.19,3.13-0.19
			C70.96,20.53,72.48,20.32,73.97,19.85z"/>
		<path class="st8" d="M57.8,20.17c1.1,0.33,2.12,0.98,3.31,1.01c1.33,0.04,2.64,0.25,3.98,0.31c1.59,0.07,3.1-0.45,4.63-0.41
			c1.19,0.03,2.36-0.26,3.55-0.16c0.33,0.03,0.9,0.01,1.16-0.44c0.26,0.35,0.58,0.66,0.66,1.12c-1.13-0.34-2.26,0.09-3.39,0.05
			c-1.98-0.06-3.91,0.6-5.89,0.5c-0.81-0.04-1.65-0.13-2.43-0.14c-1.63-0.01-3.19-0.49-4.81-0.4c-0.55,0.03-0.95-0.3-1.41-0.49
			C57.26,20.73,57.52,20.44,57.8,20.17z"/>
		<path class="st4" d="M116.6,45.22c-0.61,0.68-1.29,0.12-1.93,0.07c-0.44-0.03-0.86-0.25-1.29-0.4c-0.56-0.21-1.08-0.18-1.6,0.12
			c-1.04,0.59-2.14,0.68-3.3,0.43c-0.96-0.2-1.9,0.02-2.81,0.33c-0.86,0.3-1.74,0.42-2.62,0.58c-0.09-0.52,0.06-0.99,0.27-1.44
			c0.28,0.04,0.54,0.08,0.84,0.05c1.18-0.13,2.4-0.25,3.56-0.24c1.41,0.01,2.76,0.2,4.12-0.39c0.4-0.17,0.9-0.3,1.39-0.19
			c1.04,0.23,2.09,0.49,3.17,0.3C116.42,44.71,116.67,44.93,116.6,45.22z"/>
		<path class="st4" d="M29.21,42.84c-1.13-0.03-2.27,0.11-3.36-0.37c-0.28-0.12-0.77-0.01-1.05,0.16c-1.33,0.81-2.75,0.78-4.21,0.56
			c-0.71-0.11-1.4,0.01-2.11,0.21c-0.96,0.27-1.96,0.38-2.94,0.56c0.11-0.48,0.21-0.96,0.32-1.44c0.46,0.14,0.91,0.17,1.4,0.1
			c0.82-0.11,1.65-0.17,2.48-0.14c1.4,0.05,2.8,0.19,4.2-0.11c0.23-0.05,0.46-0.06,0.66-0.21c0.46-0.36,1.03-0.41,1.51-0.21
			c0.93,0.39,1.79,0,2.67-0.08C29.07,42.13,29.06,42.52,29.21,42.84z"/>
		<path class="st5" d="M116.41,44.44c-1.09,0.19-2.13-0.06-3.17-0.3c-0.49-0.11-1,0.01-1.39,0.19c-1.35,0.59-2.71,0.4-4.12,0.39
			c-1.16-0.01-2.38,0.1-3.56,0.24c-0.3,0.03-0.56-0.01-0.84-0.05c0.01-0.44,0.22-0.79,0.48-1.12c1.15,0.05,2.29,0.11,3.44,0.16
			c0.92,0.04,1.85,0.17,2.75,0.07c0.83-0.09,1.67-0.1,2.49-0.24c1.16-0.19,2.35,0.3,3.49-0.16
			C116.19,43.86,116.29,44.15,116.41,44.44z"/>
		<path class="st9" d="M73.97,19.85c-1.49,0.47-3.01,0.68-4.58,0.68c-1.04,0-2.1,0.07-3.13,0.19c-1.31,0.16-2.53-0.16-3.79-0.32
			c-0.36-0.04-0.72-0.07-1.07-0.12c-0.98-0.14-1.91-0.49-2.63-1.24c0.16-0.16,0.31-0.32,0.47-0.47c0.29,0.21,0.59,0.41,0.98,0.32
			c0.05,0,0.1,0,0.15,0.01c0.44,0.8,1.24,0.55,1.92,0.64c0.11,0,0.21,0,0.32,0c0.11,0.52,0.52,0.25,0.8,0.31c0.16,0,0.31,0,0.47,0
			c0.12,0.18,0.21,0.47,0.48,0.16c0.1,0,0.2,0,0.31,0c0.3-0.04,0.46,0.29,0.8,0.27c0.98-0.07,1.97-0.12,2.95-0.07
			c0.39,0.02,0.68-0.2,1.05-0.17c1.39,0.12,2.71-0.21,4-0.68C73.64,19.53,73.81,19.69,73.97,19.85z"/>
		<path class="st5" d="M28.78,41.88c-0.89,0.08-1.74,0.47-2.67,0.08c-0.48-0.2-1.05-0.15-1.51,0.21c-0.2,0.16-0.43,0.16-0.66,0.21
			c-1.4,0.31-2.79,0.17-4.2,0.11c-0.82-0.03-1.66,0.03-2.48,0.14c-0.49,0.07-0.94,0.03-1.4-0.1c0.14-0.32,0.29-0.65,0.43-0.97
			c1.13,0.07,2.25,0.26,3.38,0c0.1,0,0.21,0,0.31,0c0.09,0.05,0.17,0.13,0.26,0.15c1.28,0.28,2.56,0.23,3.81-0.07
			c0.51-0.12,1.06,0.13,1.52-0.25c0.15,0,0.31-0.01,0.46-0.01c0.85,0.24,1.69,0.3,2.55,0.03C28.64,41.57,28.71,41.72,28.78,41.88z"
			/>
		<path class="st10" d="M70.93,17.44c0.37-0.02,0.6,0.21,0.82,0.46c-0.87-0.07-1.57,0.59-2.45,0.53c-1.73-0.11-3.47-0.31-5.14-0.71
			c-0.67-0.16-1.53-0.22-2.03-0.91c0.54-0.32,1.13-0.49,1.76-0.47c0.27,0.48,0.78,0.51,1.22,0.62c0.56,0.14,1.18,0.18,1.69,0.36
			C68.2,17.82,69.54,17.76,70.93,17.44z"/>
		<path class="st11" d="M70.93,17.44c-1.39,0.32-2.74,0.38-4.13-0.11c-0.51-0.18-1.13-0.22-1.69-0.36
			c-0.45-0.11-0.95-0.15-1.22-0.62C66.39,15.71,68.75,16.02,70.93,17.44z"/>
		<path class="st8" d="M115.96,43.63c-1.14,0.46-2.33-0.04-3.49,0.16c-0.82,0.14-1.66,0.15-2.49,0.24c-0.91,0.1-1.83-0.03-2.75-0.07
			c-1.15-0.05-2.29-0.11-3.44-0.16c0.03-0.39,0.31-0.65,0.53-0.94c1.43,0.57,2.93,0.68,4.45,0.62c0.26-0.05,0.53-0.1,0.79-0.15
			c0.43,0.32,0.85,0.6,1.27,0c0.08-0.12,0.2-0.14,0.32-0.14c0.16,0.19,0.32,0.19,0.48,0c0.11,0,0.21,0,0.32,0
			c0.12,0.19,0.31,0.15,0.49,0.14c0.65-0.08,1.29-0.18,1.94-0.23c0.38-0.03,0.78,0.08,1.09-0.25
			C115.62,43.1,115.94,43.28,115.96,43.63z"/>
		<path class="st7" d="M26.03,41.38c-0.15,0-0.31,0.01-0.46,0.02c-0.97-0.28-1.95-0.11-2.92-0.05c-0.64,0.04-1.26,0.41-1.91-0.02
			c-0.28-0.18-0.55,0.01-0.76,0.24c-0.1,0-0.21,0-0.31,0c-0.03-0.28-0.25-0.27-0.45-0.34c-0.76-0.23-1.58-0.23-2.29-0.62
			c0.16-0.21,0.19-0.52,0.48-0.64c0.77-0.01,1.32,0.71,2.12,0.64c0.26-0.02,0.56-0.04,0.79,0.06c1.11,0.48,2.29,0.3,3.38,0.17
			c1.37-0.16,2.79-0.07,4.11-0.55c0.11,0.16,0.22,0.32,0.32,0.48c-0.32,0.22-0.61,0.38-1.06,0.25
			C26.73,40.9,26.26,40.93,26.03,41.38z"/>
		<path class="st9" d="M27.81,40.28c-1.33,0.48-2.75,0.39-4.11,0.55c-1.09,0.13-2.28,0.31-3.38-0.17c-0.23-0.1-0.53-0.08-0.79-0.06
			c-0.8,0.08-1.35-0.65-2.12-0.64c0.22-0.28,0.4-0.59,0.8-0.64c0.54,0.22,1.06,0.54,1.62,0.63c1.67,0.25,3.36,0.46,5.05,0.33
			c0.79-0.06,1.61-0.09,2.29-0.63C27.42,39.82,27.65,40.02,27.81,40.28z"/>
		<path class="st12" d="M62.13,16.82c0.5,0.68,1.35,0.74,2.03,0.91c1.68,0.4,3.41,0.6,5.14,0.71c0.88,0.06,1.58-0.59,2.45-0.53
			c0.15,0.04,0.28,0.12,0.31,0.29c-0.54,0.35-1.13,0.54-1.76,0.55c-1.85,0.02-3.72,0.15-5.54-0.33c-0.53-0.14-1.02-0.24-1.58-0.22
			c-0.72,0.02-1.21-0.55-1.69-1.05C61.65,16.93,61.89,16.87,62.13,16.82z"/>
		<path class="st6" d="M27.16,39.65c-0.67,0.54-1.5,0.56-2.29,0.63c-1.69,0.14-3.38-0.07-5.05-0.33c-0.56-0.08-1.08-0.41-1.62-0.63
			c0.25-0.33,0.58-0.53,0.97-0.64c0.88,1,2.14,0.96,3.29,1.08c0.85,0.09,1.74-0.02,2.61-0.04c0.48-0.01,1.13,0.05,1.45-0.55
			C26.84,39.19,27.03,39.39,27.16,39.65z"/>
		<path class="st10" d="M106.99,40.75c0.37-0.31,0.82-0.42,1.29-0.45c0.01,0.05,0.03,0.14,0.04,0.15c1.11,0.09,2.12,0.71,3.26,0.64
			c0.55-0.04,1.15,0.37,1.65-0.17c0.16,0.11,0.32,0.21,0.48,0.32c-0.02,0.31-0.18,0.48-0.5,0.49c-0.22,0-0.43,0.01-0.48,0.29
			c-0.1,0-0.19,0.01-0.29,0.01c-0.03-0.13-0.09-0.26-0.24-0.28c-1-0.09-2.01-0.1-2.98-0.28C108.47,41.32,107.6,41.4,106.99,40.75z"
			/>
		<path class="st12" d="M26.52,39.17c-0.32,0.6-0.97,0.54-1.45,0.55c-0.87,0.02-1.76,0.13-2.61,0.04c-1.14-0.12-2.41-0.08-3.29-1.08
			c0.21-0.25,0.53-0.31,0.79-0.45c0.04,0.32,0.24,0.42,0.54,0.47c1.08,0.21,2.15,0.57,3.23,0.62c0.86,0.04,1.8,0.15,2.63-0.33
			C26.42,39.06,26.47,39.12,26.52,39.17z"/>
		<path class="st13" d="M73.48,19.36c-1.29,0.46-2.61,0.8-4,0.68c-0.37-0.03-0.66,0.19-1.05,0.17c-0.98-0.05-1.97,0-2.95,0.07
			c-0.34,0.02-0.49-0.31-0.8-0.27c0.06-0.39,0.38-0.35,0.62-0.3c1.27,0.24,2.54-0.1,3.8,0.01c0.99,0.08,1.94-0.08,2.9-0.24
			c0.42-0.07,0.68-0.38,1.01-0.58C73.17,19.05,73.32,19.21,73.48,19.36z"/>
		<path class="st9" d="M109.56,43.32c-0.26,0.05-0.53,0.1-0.79,0.15c0.02-0.41-0.23-0.43-0.56-0.48c-1.16-0.16-2.38-0.07-3.47-0.64
			c0.22-0.21,0.44-0.43,0.66-0.64c0.11,0.58,0.66,0.34,0.98,0.47c1.12,0.46,2.28,0.76,3.5,0.34c0.21,0,0.42,0,0.64,0.01
			c0.01,0.43,0.61,0.05,0.64,0.46c0,0.06,0,0.12,0,0.18c-0.13,0-0.25,0.03-0.32,0.14C110.41,43.47,109.99,43,109.56,43.32z"/>
		<path class="st6" d="M110.52,42.53c-0.21,0-0.42,0-0.64-0.01c-1.45-0.18-2.85-0.59-4.24-1.03c0.25-0.14,0.41-0.41,0.72-0.43
			c1.91,1.08,4,1,6.09,0.95c0.1,0,0.19-0.01,0.29-0.01c0.11,0.06,0.22,0.12,0.33,0.19c-0.06,0.16-0.11,0.31-0.17,0.47
			c-0.16,0-0.31,0-0.47,0.01c-0.08-0.13-0.19-0.15-0.33-0.14c-0.15,0-0.31,0-0.46,0C111.27,42.54,110.9,42.53,110.52,42.53z"/>
		<path class="st10" d="M26.37,39c-0.83,0.48-1.77,0.37-2.63,0.33c-1.09-0.05-2.15-0.42-3.23-0.62c-0.3-0.06-0.5-0.15-0.54-0.47
			c0.32-0.08,0.62-0.22,0.96-0.18c0.22,0.32,0.59,0.37,0.91,0.37c0.74,0,1.41,0.21,2.09,0.45c0.62,0.22,1.22,0.09,1.79-0.18
			C25.98,38.72,26.2,38.81,26.37,39z"/>
		<path class="st11" d="M113.24,40.92c-0.5,0.54-1.1,0.13-1.65,0.17c-1.14,0.08-2.15-0.54-3.26-0.64c-0.02,0-0.03-0.1-0.04-0.15
			C110,39.94,111.67,40.03,113.24,40.92z"/>
		<path class="st11" d="M25.73,38.69c-0.58,0.28-1.17,0.4-1.79,0.18c-0.68-0.24-1.35-0.45-2.09-0.45c-0.32,0-0.69-0.05-0.91-0.37
			C22.62,37.61,24.22,37.76,25.73,38.69z"/>
		<path class="st12" d="M112.45,42.02c-2.09,0.05-4.18,0.13-6.09-0.95c0.17-0.19,0.39-0.27,0.63-0.31c0.61,0.65,1.48,0.57,2.24,0.71
			c0.98,0.18,1.99,0.19,2.98,0.28C112.37,41.75,112.42,41.89,112.45,42.02z"/>
		<path class="st7" d="M104.75,42.35c1.09,0.56,2.3,0.48,3.47,0.64c0.33,0.05,0.58,0.07,0.56,0.48c-1.52,0.06-3.02-0.05-4.45-0.62
			C104.36,42.59,104.58,42.49,104.75,42.35z"/>
		<path class="st8" d="M16.92,40.6c0.71,0.4,1.53,0.39,2.29,0.62c0.2,0.06,0.43,0.05,0.45,0.34c-1.13,0.26-2.25,0.07-3.38,0
			C16.38,41.16,16.64,40.87,16.92,40.6z"/>
		<path class="st13" d="M105.64,41.5c1.39,0.44,2.79,0.85,4.24,1.03c-1.22,0.42-2.38,0.12-3.5-0.34c-0.32-0.13-0.87,0.11-0.98-0.47
			C105.49,41.64,105.56,41.57,105.64,41.5z"/>
		<path class="st9" d="M112.44,42.67c0.16,0,0.31,0,0.47-0.01c0.68-0.03,1.39,0.09,1.93-0.47c0.26,0.17,0.48,0.36,0.64,0.63
			c-0.3,0.34-0.7,0.23-1.09,0.25c-0.65,0.05-1.29,0.15-1.94,0.23c0-0.11-0.01-0.21-0.01-0.32
			C112.44,42.88,112.44,42.78,112.44,42.67z"/>
		<path class="st8" d="M26.03,41.38c0.23-0.45,0.7-0.48,1.05-0.38c0.45,0.13,0.74-0.02,1.06-0.25c0.28,0.13,0.34,0.41,0.44,0.65
			C27.72,41.69,26.87,41.62,26.03,41.38z"/>
		<path class="st13" d="M114.84,42.19c-0.55,0.56-1.26,0.44-1.93,0.47c0.06-0.16,0.11-0.31,0.17-0.47c0.26-0.01,0.52-0.01,0.78-0.02
			c0.28-0.05,0.55-0.1,0.83-0.15C114.74,42.09,114.79,42.14,114.84,42.19z"/>
		<path class="st12" d="M113.86,42.18c-0.26,0.01-0.52,0.01-0.78,0.02c-0.11-0.06-0.22-0.12-0.33-0.19
			c0.05-0.28,0.26-0.29,0.48-0.29c0.32,0,0.48-0.17,0.5-0.49c0.31,0.03,0.5,0.23,0.66,0.48C114.08,41.73,113.9,41.88,113.86,42.18z"
			/>
		<path class="st13" d="M60.23,18.89c-0.39,0.09-0.69-0.11-0.98-0.32c0.12-0.29,0.44-0.31,0.65-0.49
			C60.03,18.34,60.29,18.55,60.23,18.89z"/>
		<path class="st6" d="M113.86,42.18c0.04-0.3,0.22-0.45,0.52-0.47c0.11,0.11,0.21,0.22,0.31,0.32
			C114.41,42.08,114.13,42.13,113.86,42.18z"/>
		<path d="M4.66,61.53c-0.05,0.15-0.15,0.17-0.28,0.11c0.05-0.07,0.1-0.14,0.15-0.22C4.57,61.46,4.61,61.49,4.66,61.53z"/>
		<path class="st13" d="M62.3,19.54c-0.68-0.09-1.47,0.17-1.92-0.64C61.11,18.84,61.77,19,62.3,19.54z"/>
		<path class="st13" d="M64.37,20.01c-0.28,0.31-0.36,0.02-0.48-0.16c0.02-0.12,0.04-0.28,0.21-0.25
			C64.31,19.64,64.36,19.82,64.37,20.01z"/>
		<path class="st13" d="M63.42,19.85c-0.29-0.06-0.7,0.21-0.8-0.31C62.92,19.54,63.25,19.49,63.42,19.85z"/>
		<path class="st8" d="M19.97,41.56c0.21-0.22,0.48-0.42,0.76-0.24c0.65,0.43,1.27,0.06,1.91,0.02c0.97-0.06,1.95-0.23,2.92,0.05
			c-0.45,0.37-1.01,0.13-1.52,0.25c-1.25,0.3-2.54,0.34-3.81,0.07C20.14,41.69,20.06,41.61,19.97,41.56z"/>
		<path class="st7" d="M109.56,43.32c0.42-0.32,0.85,0.15,1.27,0C110.42,43.92,109.99,43.64,109.56,43.32z"/>
		<path class="st9" d="M111.65,42.54c0.15,0,0.31,0,0.46,0c0,0.15,0.01,0.3,0.01,0.45c-0.05,0.06-0.11,0.12-0.16,0.18
			c-0.11,0-0.21,0-0.32,0c0-0.06,0-0.12,0-0.17C111.64,42.84,111.65,42.69,111.65,42.54z"/>
		<path class="st7" d="M111.96,43.17c0.05-0.06,0.11-0.12,0.16-0.18c0.1,0,0.21,0,0.31,0c0,0.11,0.01,0.21,0.01,0.32
			C112.27,43.32,112.08,43.35,111.96,43.17z"/>
		<path class="st7" d="M111.64,43c0,0.06,0,0.12,0,0.17c-0.16,0.19-0.32,0.2-0.48,0c0-0.06,0-0.12,0-0.18
			C111.32,43,111.48,43,111.64,43z"/>
		<path class="st13" d="M111.64,43c-0.16,0-0.32,0-0.48,0c-0.03-0.41-0.63-0.03-0.64-0.46c0.38,0,0.75,0,1.13,0.01
			C111.65,42.69,111.64,42.84,111.64,43z"/>
		<path class="st13" d="M112.44,42.99c-0.1,0-0.21,0-0.31,0c0-0.15-0.01-0.3-0.01-0.46c0.13-0.01,0.25,0.01,0.33,0.14
			C112.44,42.78,112.44,42.88,112.44,42.99z"/>
	</g>
</g>
</svg>
