<?xml version="1.0" encoding="utf-8"?>
<!-- Generator: Adobe Illustrator 25.3.0, SVG Export Plug-In . SVG Version: 6.00 Build 0)  -->
<svg version="1.1" id="Layer_1" xmlns="http://www.w3.org/2000/svg" xmlns:xlink="http://www.w3.org/1999/xlink" x="0px" y="0px"
	 viewBox="0 0 360 360" style="enable-background:new 0 0 360 360;" xml:space="preserve">
<style type="text/css">
	.st0{fill:#BA3826;}
	.st1{fill:#FFFFFF;}
</style>
<g>
	<g>
		<path class="st0" d="M324.59,129.36c13.84,15.49,25.02,32.6,31.19,51.13c6.33,19.02,6.05,40.96-4.37,58.08
			c-7.34,12.05-18.96,20.78-30.59,28.77c-32.26,22.14-68.21,41.61-105,56.68c-33.79,13.84-78.01,33.44-114.46,18.97
			c-21.71-8.62-37.12-28.6-49.06-47.81C25.86,252.64,9.42,204.06,3.77,154.33c-4.13-36.35-10.73-99.04,17.26-127.9
			c19.39-20,51.83-14.6,76.62-11.11c51.19,7.21,102.34,24.64,147.28,51.39C271.58,82.57,301.71,103.75,324.59,129.36z"/>
	</g>
	<g>
		<g>
			<path class="st1" d="M119.99,149.32c0,1.47,0.21,2.74,1.53,3.6c8.97,0.03,17.94,0.05,26.91,0.08c3.6-0.24,7.11,0.55,10.22,2.08
				c3.3,1.62,6.12,1.48,9.33-0.02c2.88-1.34,6.01-2.14,9.26-2.06c9.18-0.03,18.37-0.06,27.55-0.09c1.32-0.86,1.54-2.11,1.53-3.59
				c-0.03-19.71-0.02-39.42-0.02-59.12c0-1.92-0.07-3.88-2.66-3.82c-10.75,0.24-21.51-0.63-32.24,0.51
				c-3.16,0.34-5.84,3.14-8.47,2.92c-2.6-0.22-5.18-2.58-8.21-2.91c-1.58-0.17-3.16-0.42-4.74-0.63
				c-9.48,0.02-18.97,0.05-28.45,0.07c-1.26,0.89-1.55,2.12-1.55,3.61C120.02,109.73,120.02,129.53,119.99,149.32z M166.65,97.79
				c0-5.22,0.42-5.9,5.58-6.52c9.56-1.15,19.18-0.34,28.77-0.46c0.17,0,0.35,0.4,0.52,0.61c0,18.58,0,37.15,0,55.73
				c0.27,2.3-1.5,1.27-2.38,1.33c-10.82,0.7-21.85-1.73-32.5,2.38C166.65,132.99,166.65,115.39,166.65,97.79z"/>
		</g>
		<g>
			<path class="st1" d="M185.33,112.54c2.11,0.05,4.23,0.27,6.31,0.09c2.4-0.21,3.36,0.59,2.85,2.99c-6.6,0.05-13.2,0.11-19.8,0.16
				c-0.76-1.05-0.57-2.1,0.03-3.14C178.25,112.61,181.79,112.57,185.33,112.54z"/>
		</g>
		<g>
			<path class="st1" d="M176.18,123.59c5.51,0.04,11.03,0.02,16.54,0.01c1.07,0,1.82,0.17,1.85,1.53c0.04,1.37-0.67,1.54-1.76,1.53
				c-2.76-0.03-5.51-0.01-8.27-0.01c-2.76,0-5.51,0.01-8.27-0.01c-0.91-0.01-1.98,0.24-2.04-1.27
				C174.17,123.93,174.9,123.59,176.18,123.59z"/>
		</g>
		<g>
			<path class="st1" d="M192.88,121.14c-5.64,0-11.28,0-16.92,0c-0.9,0-1.67-0.08-1.7-1.32c-0.04-1.41,0.77-1.51,1.84-1.5
				c2.77,0.03,5.53,0.01,8.3,0.01c2.77,0,5.53,0.01,8.3-0.01c1.04-0.01,1.88,0.03,1.84,1.47
				C194.5,121.01,193.8,121.14,192.88,121.14z"/>
		</g>
		<g>
			<path class="st1" d="M176.26,129.2c5.42,0,10.85,0,16.27,0c0.94,0,1.93-0.17,2.01,1.32c0.08,1.78-1.14,1.46-2.14,1.47
				c-2.66,0.03-5.32,0.01-7.97,0.01c-2.66,0-5.32,0.02-7.97-0.01c-0.98-0.01-2.26,0.35-2.19-1.43
				C174.32,129.13,175.28,129.2,176.26,129.2z"/>
		</g>
		<g>
			<path class="st1" d="M184.6,110.22c-2.99,0.01-5.97,0-8.96,0.01c-1.16,0-1.37-0.71-1.37-1.69c0-1.13,0.76-1.1,1.52-1.11
				c1.39-0.01,2.77,0,4.16,0c1.49,0,2.99,0.02,4.48-0.01c0.9-0.02,1.39,0.27,1.34,1.27C185.73,109.52,185.62,110.22,184.6,110.22z"
				/>
		</g>
	</g>
	<g>
		<path class="st1" d="M150.16,191.57h-16.07v8.48c0.69-0.86,1.69-1.56,2.98-2.11c1.29-0.55,2.66-0.82,4.12-0.82
			c2.65,0,4.81,0.58,6.5,1.74c1.69,1.16,2.91,2.64,3.67,4.44c0.76,1.8,1.14,3.73,1.14,5.78c0,3.8-1.08,6.86-3.25,9.18
			c-2.17,2.32-5.25,3.47-9.25,3.47c-3.77,0-6.78-0.94-9.03-2.83c-2.25-1.88-3.52-4.35-3.82-7.39h6.75c0.3,1.32,0.97,2.38,2.01,3.17
			c1.04,0.79,2.37,1.19,3.99,1.19c1.95,0,3.42-0.61,4.41-1.83c0.99-1.22,1.49-2.84,1.49-4.86c0-2.05-0.5-3.61-1.51-4.69
			c-1.01-1.07-2.49-1.61-4.44-1.61c-1.39,0-2.55,0.35-3.47,1.04s-1.59,1.62-1.98,2.78h-6.65v-21.23h22.42V191.57z"/>
		<path class="st1" d="M160.9,189.74c2.07-3.24,5.5-4.86,10.29-4.86c4.79,0,8.23,1.62,10.29,4.86c2.07,3.24,3.1,7.72,3.1,13.44
			c0,5.75-1.03,10.27-3.1,13.54c-2.07,3.27-5.5,4.91-10.29,4.91c-4.79,0-8.23-1.64-10.29-4.91c-2.07-3.27-3.1-7.79-3.1-13.54
			C157.8,197.46,158.84,192.98,160.9,189.74z M177.27,197.01c-0.31-1.67-0.94-3.03-1.89-4.09c-0.94-1.06-2.34-1.59-4.19-1.59
			c-1.85,0-3.25,0.53-4.19,1.59c-0.94,1.06-1.57,2.42-1.88,4.09c-0.31,1.67-0.47,3.73-0.47,6.17c0,2.51,0.15,4.62,0.45,6.33
			c0.3,1.7,0.93,3.08,1.89,4.12c0.96,1.04,2.36,1.56,4.22,1.56c1.85,0,3.26-0.52,4.22-1.56c0.96-1.04,1.59-2.41,1.88-4.12
			c0.3-1.7,0.45-3.81,0.45-6.33C177.74,200.73,177.58,198.68,177.27,197.01z"/>
		<path class="st1" d="M216.58,207.1h-9.37v9.62h-6.55v-9.62h-9.38v-6.05h9.38v-9.62h6.55v9.62h9.37V207.1z"/>
	</g>
	<g>
		<path class="st1" d="M102.98,248.08c0.88-1.54,2.08-2.75,3.61-3.61c1.53-0.86,3.24-1.29,5.13-1.29c2.22,0,4.16,0.57,5.83,1.71
			c1.67,1.14,2.83,2.71,3.5,4.72h-4.58c-0.46-0.95-1.09-1.66-1.92-2.13c-0.82-0.47-1.78-0.71-2.86-0.71c-1.16,0-2.18,0.27-3.08,0.81
			s-1.6,1.3-2.1,2.29c-0.5,0.99-0.75,2.14-0.75,3.47c0,1.31,0.25,2.46,0.75,3.45c0.5,1,1.2,1.76,2.1,2.3
			c0.9,0.54,1.93,0.81,3.08,0.81c1.08,0,2.03-0.24,2.86-0.72c0.82-0.48,1.46-1.2,1.92-2.15h4.58c-0.66,2.03-1.82,3.61-3.48,4.73
			c-1.66,1.13-3.61,1.69-5.84,1.69c-1.9,0-3.61-0.43-5.13-1.29c-1.53-0.86-2.73-2.06-3.61-3.6s-1.32-3.28-1.32-5.23
			S102.1,249.62,102.98,248.08z"/>
		<path class="st1" d="M127.37,262.52c-1.21-0.67-2.17-1.62-2.86-2.86c-0.69-1.23-1.04-2.65-1.04-4.26c0-1.61,0.36-3.03,1.07-4.26
			c0.71-1.23,1.68-2.18,2.91-2.86c1.23-0.67,2.61-1.01,4.12-1.01s2.89,0.34,4.12,1.01c1.23,0.67,2.2,1.62,2.91,2.86
			c0.71,1.23,1.07,2.65,1.07,4.26c0,1.61-0.37,3.03-1.09,4.26c-0.73,1.23-1.72,2.19-2.96,2.86c-1.24,0.67-2.63,1.01-4.17,1.01
			C129.94,263.53,128.58,263.2,127.37,262.52z M133.49,259.54c0.63-0.35,1.14-0.88,1.52-1.58c0.38-0.7,0.57-1.55,0.57-2.56
			c0-1.5-0.39-2.65-1.18-3.45s-1.75-1.21-2.89-1.21s-2.09,0.4-2.86,1.21s-1.15,1.96-1.15,3.45c0,1.5,0.37,2.65,1.12,3.46
			c0.75,0.81,1.69,1.21,2.83,1.21C132.18,260.06,132.86,259.89,133.49,259.54z"/>
		<path class="st1" d="M157.48,247.52v15.75h-4.01v-1.99c-0.51,0.68-1.18,1.22-2,1.61c-0.82,0.39-1.72,0.58-2.69,0.58
			c-1.23,0-2.32-0.26-3.27-0.78c-0.95-0.52-1.69-1.29-2.23-2.3c-0.54-1.01-0.81-2.22-0.81-3.62v-9.24h3.98v8.67
			c0,1.25,0.31,2.21,0.94,2.89c0.63,0.67,1.48,1.01,2.56,1.01c1.1,0,1.96-0.34,2.59-1.01s0.94-1.64,0.94-2.89v-8.67H157.48z"/>
		<path class="st1" d="M167.38,248.01c0.82-0.47,1.77-0.71,2.83-0.71v4.18h-1.05c-1.25,0-2.19,0.29-2.83,0.88
			c-0.64,0.59-0.95,1.61-0.95,3.07v7.85h-3.98v-15.75h3.98v2.45C165.89,249.14,166.56,248.48,167.38,248.01z"/>
		<path class="st1" d="M175.44,262.84c-1.02-0.46-1.83-1.09-2.43-1.89c-0.6-0.8-0.92-1.68-0.98-2.64h4.01
			c0.08,0.61,0.37,1.11,0.9,1.51c0.52,0.4,1.17,0.6,1.95,0.6c0.76,0,1.35-0.15,1.78-0.45c0.43-0.3,0.64-0.69,0.64-1.17
			c0-0.51-0.26-0.9-0.78-1.15c-0.52-0.26-1.35-0.54-2.49-0.84c-1.18-0.28-2.14-0.58-2.89-0.88c-0.75-0.3-1.39-0.77-1.93-1.39
			c-0.54-0.63-0.81-1.47-0.81-2.53c0-0.87,0.25-1.67,0.75-2.39c0.5-0.72,1.22-1.29,2.16-1.71c0.94-0.42,2.04-0.63,3.31-0.63
			c1.88,0,3.37,0.47,4.49,1.41c1.12,0.94,1.73,2.2,1.85,3.8h-3.81c-0.06-0.62-0.32-1.12-0.78-1.49c-0.46-0.37-1.08-0.55-1.86-0.55
			c-0.72,0-1.27,0.13-1.66,0.4c-0.39,0.27-0.58,0.63-0.58,1.11c0,0.53,0.27,0.93,0.8,1.21c0.53,0.28,1.35,0.55,2.47,0.84
			c1.14,0.29,2.07,0.58,2.81,0.88c0.74,0.3,1.38,0.77,1.92,1.41c0.54,0.64,0.82,1.47,0.84,2.52c0,0.91-0.25,1.72-0.75,2.45
			s-1.22,1.28-2.16,1.69c-0.94,0.41-2.03,0.61-3.28,0.61C177.62,263.53,176.47,263.3,175.44,262.84z"/>
		<path class="st1" d="M202.91,256.59h-11.52c0.09,1.14,0.49,2.03,1.19,2.67s1.56,0.97,2.59,0.97c1.48,0,2.53-0.63,3.16-1.91h4.29
			c-0.46,1.52-1.33,2.76-2.62,3.74s-2.87,1.46-4.75,1.46c-1.52,0-2.88-0.34-4.08-1.01c-1.2-0.67-2.14-1.62-2.82-2.86
			c-0.67-1.23-1.01-2.65-1.01-4.26c0-1.63,0.33-3.06,1-4.29c0.66-1.23,1.59-2.18,2.79-2.84c1.19-0.66,2.57-1,4.12-1
			c1.5,0,2.84,0.32,4.02,0.97c1.18,0.64,2.1,1.56,2.76,2.74c0.65,1.18,0.98,2.54,0.98,4.08
			C203.02,255.63,202.99,256.14,202.91,256.59z M198.9,253.92c-0.02-1.02-0.39-1.84-1.11-2.46c-0.72-0.62-1.6-0.92-2.64-0.92
			c-0.99,0-1.82,0.3-2.49,0.9c-0.67,0.6-1.09,1.43-1.24,2.49H198.9z"/>
		<path class="st1" d="M208.48,262.84c-1.02-0.46-1.83-1.09-2.43-1.89c-0.6-0.8-0.92-1.68-0.98-2.64h4.01
			c0.08,0.61,0.37,1.11,0.9,1.51c0.52,0.4,1.17,0.6,1.95,0.6c0.76,0,1.35-0.15,1.78-0.45c0.43-0.3,0.64-0.69,0.64-1.17
			c0-0.51-0.26-0.9-0.78-1.15s-1.35-0.54-2.49-0.84c-1.18-0.28-2.14-0.58-2.89-0.88c-0.75-0.3-1.39-0.77-1.93-1.39
			c-0.54-0.63-0.81-1.47-0.81-2.53c0-0.87,0.25-1.67,0.75-2.39c0.5-0.72,1.22-1.29,2.16-1.71s2.04-0.63,3.31-0.63
			c1.88,0,3.37,0.47,4.49,1.41c1.12,0.94,1.73,2.2,1.85,3.8h-3.81c-0.06-0.62-0.32-1.12-0.78-1.49c-0.46-0.37-1.09-0.55-1.86-0.55
			c-0.72,0-1.28,0.13-1.66,0.4s-0.58,0.63-0.58,1.11c0,0.53,0.26,0.93,0.8,1.21c0.53,0.28,1.35,0.55,2.47,0.84
			c1.14,0.29,2.08,0.58,2.81,0.88c0.74,0.3,1.38,0.77,1.92,1.41c0.54,0.64,0.82,1.47,0.84,2.52c0,0.91-0.25,1.72-0.75,2.45
			c-0.5,0.72-1.22,1.28-2.16,1.69s-2.03,0.61-3.28,0.61C210.66,263.53,209.51,263.3,208.48,262.84z"/>
	</g>
</g>
</svg>
