<?xml version="1.0" encoding="utf-8"?>
<!-- Generator: Adobe Illustrator 25.3.0, SVG Export Plug-In . SVG Version: 6.00 Build 0)  -->
<svg version="1.1" id="Layer_1" xmlns="http://www.w3.org/2000/svg" xmlns:xlink="http://www.w3.org/1999/xlink" x="0px" y="0px"
	 viewBox="0 0 360 360" style="enable-background:new 0 0 360 360;" xml:space="preserve">
<style type="text/css">
	.st0{fill:#BA3826;}
</style>
<g>
	<path class="st0" d="M197.32,23.43c49.05,0,98.1,0,147.15,0.01c2.61,0,5.29-0.25,7.8,0.27c4.92,1.01,7.82,4.25,7.72,9.37
		c-0.09,4.74-2.92,7.69-7.45,8.84c-1.49,0.38-3.11,0.26-4.67,0.29c-12.78,0.27-12.78,0.26-12.78,12.76c0,51.67,0.11,103.34-0.14,155
		c-0.03,6.26,1.78,8.5,7.88,7.69c2.56-0.34,5.22-0.2,7.82,0.01c5.77,0.47,9.41,3.64,9.3,9.49c-0.1,5.85-3.86,8.81-9.63,9.19
		c-1.04,0.07-2.09,0.04-3.13,0.04c-41.49,0-82.97,0-124.46,0c-0.78,0-1.57,0-2.35-0.02c-6.11-0.14-10.26-3.03-10.32-9.29
		c-0.05-6.27,4.03-9.35,10.15-9.43c8.87-0.11,17.74-0.04,26.61-0.04c20.87,0,41.75-0.19,62.62,0.12c5.54,0.08,7-1.62,6.98-7.05
		c-0.19-53.76-0.17-107.51-0.02-161.27c0.01-5.08-0.84-7.32-6.7-7.31c-74.88,0.19-149.76,0.19-224.65,0
		c-5.71-0.01-6.89,1.95-6.83,7.19c0.24,23.22,0.11,46.45,0.09,69.67c-0.01,6.45-2.94,10.86-9.66,10.72
		c-6.26-0.14-9.05-4.41-9.09-10.51c-0.01-1.83-0.01-3.65-0.01-5.48c0-21.4-0.21-42.8,0.14-64.19c0.1-5.88-1.57-8.12-7.44-7.34
		c-2.82,0.37-5.75,0.23-8.6-0.04c-5.4-0.51-8.86-3.59-8.96-9.03c-0.11-5.86,3.46-9.03,9.22-9.58c2.07-0.2,4.17-0.07,6.26-0.07
		C99.22,23.43,148.27,23.43,197.32,23.43z"/>
	<path class="st0" d="M200.5,182.71c-4.03-3.73-8.53-3.6-12.66,0c-1.95,1.7-3.57,3.78-5.29,5.74
		c-22.16,25.31-44.34,50.59-66.4,75.98c-3.38,3.89-5.71,7-8.54-0.53c-1.82-4.88-5.4-9.22-9.88-11.86c-5.76-3.4-4.23-5.82-0.63-9.83
		c7.75-8.59,11.69-19.05,12.41-30.58c1.49-24.19-13.23-46.07-35.99-53.78c-22.57-7.64-47.3,0.5-60.86,20.09
		c-13.72,19.8-12.68,46.15,3.29,64.49c4.06,4.66,3.49,6.26-1.04,9.8c-9.77,7.61-14.63,18.18-14.8,30.61
		c-0.17,13.83-0.11,27.64-0.03,41.46c0.06,9.06,3.18,12.22,12.19,12.29c14.6,0.09,29.21,0.02,43.81,0.02
		c14.6,0,29.19,0.05,43.79-0.02c9.97-0.03,12.82-2.99,12.9-13.17c0.05-6.26,0.39-12.55-0.11-18.77c-0.46-5.71,1.67-9.74,5.35-13.89
		c26.58-30.09,52.95-60.37,79.37-90.61c1.54-1.76,3.19-3.48,4.47-5.43C204.68,190.43,204.21,186.15,200.5,182.71z M56.99,173.79
		c18.83,0.28,34.02,15.9,33.84,34.81c-0.19,19.17-16.12,34.5-35.39,34.01c-18.81-0.47-33.8-16.23-33.43-35.17
		C22.37,188.59,38.07,173.49,56.99,173.79z M88.17,317.89c-10.68-0.24-21.38-0.08-32.06-0.08c-10.43,0-20.84-0.13-31.27,0.06
		c-4.07,0.08-6.24-0.69-6.09-5.49c0.31-9.89-0.16-19.82,0.2-29.71c0.44-11.86,9.14-20.67,20.97-21.09
		c10.93-0.39,21.9-0.38,32.83-0.02c12.16,0.42,20.81,9.39,21.16,21.72c0.28,9.64-0.13,19.28,0.17,28.93
		C94.21,316.79,92.45,317.98,88.17,317.89z"/>
	<path class="st0" d="M194.98,129.91c17.46,0,34.93-0.04,52.39,0.02c8.18,0.03,12.9,3.54,12.42,9.56
		c-0.58,7.25-5.48,9.25-12.04,9.24c-35.71-0.07-71.42-0.07-107.13,0c-6.57,0.01-11.45-2-12.04-9.24c-0.48-6,4.27-9.54,12.43-9.56
		C159.01,129.87,176.99,129.91,194.98,129.91z"/>
	<path class="st0" d="M172.39,79.81c10.68,0,21.36-0.08,32.04,0.03c7.46,0.08,12.05,3.85,11.52,9.67c-0.6,6.73-5.03,9.12-11.37,9.1
		c-21.62-0.05-43.25-0.04-64.87-0.01c-6.38,0.01-11-2.6-11.05-9.32c-0.05-6.71,4.5-9.47,10.9-9.47
		C150.51,79.81,161.45,79.81,172.39,79.81z"/>
</g>
</svg>
