<?xml version="1.0" encoding="utf-8"?>
<!-- Generator: Adobe Illustrator 25.3.0, SVG Export Plug-In . SVG Version: 6.00 Build 0)  -->
<svg version="1.1" id="Layer_1" xmlns="http://www.w3.org/2000/svg" xmlns:xlink="http://www.w3.org/1999/xlink" x="0px" y="0px"
	 viewBox="0 0 360 360" style="enable-background:new 0 0 360 360;" xml:space="preserve">
<style type="text/css">
	.st0{fill:#BA3826;}
</style>
<g>
	<path class="st0" d="M184.21,61.82L184.21,61.82l2.76,0.04c5.35,0.12,9.98,1.07,14.14,2.89c41.92,18.43,83.85,36.72,125.57,54.9
		c-1.03,0.45-2.06,0.9-3.09,1.35l-7.76,3.42l-30.92,13.54c-25.08,10.99-50.19,22-75.39,32.83c-10.51,4.52-21.11,6.81-31.51,6.81
		c-4.72,0-9.51-0.47-14.01-1.36c-1.67-0.35-4.57-1.61-7.12-2.73l-1.07-0.47c-37.27-16.15-74.54-32.46-111.64-48.78l-0.89-0.39
		l-0.92-0.3c-0.52-0.17-1.05-0.33-1.67-0.59l-7.4-3.16c17.98-7.95,35.96-15.81,53.94-23.66c19.82-8.66,39.64-17.32,59.32-26.05
		C159.39,64.53,171.71,61.82,184.21,61.82 M184.21,41.09c-15.99,0-31.12,3.58-45.94,10.02C98.73,68.64,59.18,85.66,19.64,103.2
		c-4.98,2.24-10.14,5.16-14.27,8.77c-8.25,7.22-6.88,14.79,3.27,19.43c4.12,1.89,8.25,3.78,12.37,5.5c1.38,0.52,1.89,1.2,1.89,2.75
		v79.43c0,1.38-0.34,1.89-1.72,2.41c-4.64,1.2-8.42,3.61-11.17,7.39c-3.96,5.16-5.33,10.83-4.3,17.19
		c1.38,9.11,4.47,17.19,10.14,24.41c2.75,3.27,6.02,6.02,10.49,6.36c0.17-0.34,0.34-0.52,0.34-0.69v-2.06
		c-0.34-6.7,2.41-11.52,8.6-14.44c1.72-0.69,3.44-1.72,5.16-2.75c3.61-2.24,5.85-5.5,7.05-9.63c2.92-10.14-2.41-20.98-12.55-24.93
		c-1.89-0.86-2.41-1.89-2.41-3.95v-76.33c1.2,0.51,2.24,0.86,3.27,1.2c37.13,16.33,74.44,32.67,111.75,48.83
		c3.95,1.72,8.08,3.61,12.21,4.47c6.15,1.21,12.23,1.79,18.24,1.79c13.65,0,26.92-3,39.69-8.5c35.59-15.3,71.01-30.95,106.42-46.42
		c6.87-3.09,13.92-6.02,20.8-9.28c5.16-2.41,9.8-5.5,13.07-10.32c3.26-4.99,2.58-9.97-2.24-13.41c-1.72-1.2-3.61-2.24-5.5-3.09
		c-46.94-20.46-93.87-40.92-140.8-61.55c-7.05-3.09-14.44-4.47-22.01-4.64C186.36,41.1,185.29,41.09,184.21,41.09L184.21,41.09z"/>
	<path class="st0" d="M75.4,195.82l27.07,11.84l40.91,17.88c12.36,5.41,24.57,6.04,32.68,6.04l3.55-0.04
		c17.8-0.4,35.53-4.87,55.78-14.06c10.74-4.87,21.57-9.56,32.4-14.25c5.59-2.42,11.18-4.84,16.76-7.29
		c-0.02,5.52,0.02,11.05,0.04,16.58l0.05,13.56l0.06,11.34l-0.01,1.44c-0.06,10.27-0.12,20.54,0.15,30.8
		c0.06,1.9,0.1,3.54-4.49,6.86c-8.25,5.97-18.4,9.35-27.22,11.87c-12.98,3.7-27.56,6.33-44.57,8.02
		c-11.85,1.18-23.64,1.78-35.03,1.78c-5.35,0-10.7-0.13-16.06-0.4c-19.6-0.97-42.54-3.09-64.12-11.41
		c-7.71-2.97-12.7-5.99-16.21-9.78c-1.3-1.41-1.74-2.49-1.74-4.32l-0.01-26.38C75.39,229.2,75.38,212.51,75.4,195.82 M63.63,169.24
		c-5.29,0-8.94,3.88-8.95,10.55c-0.05,30.83-0.02,61.66-0.02,92.49c-0.01,7.09,2.44,13.19,7.25,18.4
		c6.64,7.18,15.03,11.6,23.97,15.04c22.69,8.75,46.5,11.58,70.55,12.77c5.7,0.28,11.39,0.42,17.09,0.42
		c12.37,0,24.74-0.65,37.08-1.88c16.31-1.63,32.43-4.22,48.2-8.72c11.92-3.4,23.51-7.65,33.69-15c8.23-5.95,13.36-13.4,13.07-24.21
		c-0.38-14.33-0.1-28.68-0.1-43.03c-0.04,0-0.07,0-0.1,0c0-15.5-0.26-31.01,0.11-46.5c0.15-6.19-4.37-10.31-9.68-10.31
		c-1.48,0-3.03,0.32-4.55,1.01c-21.37,9.67-43.05,18.64-64.41,28.33c-15.23,6.91-30.84,11.83-47.69,12.21
		c-1.03,0.02-2.06,0.04-3.09,0.04c-8.34,0-16.53-0.87-24.36-4.3c-27.42-12.02-54.88-23.96-82.3-35.98
		C67.34,169.67,65.39,169.24,63.63,169.24L63.63,169.24z"/>
</g>
</svg>
