<?xml version="1.0" encoding="utf-8"?>
<!-- Generator: Adobe Illustrator 25.3.0, SVG Export Plug-In . SVG Version: 6.00 Build 0)  -->
<svg version="1.1" id="Layer_1" xmlns="http://www.w3.org/2000/svg" xmlns:xlink="http://www.w3.org/1999/xlink" x="0px" y="0px"
	 viewBox="0 0 360 360" style="enable-background:new 0 0 360 360;" xml:space="preserve">
<style type="text/css">
	.st0{fill:#BA3826;}
</style>
<g>
	<path class="st0" d="M73.74,357.85c-11.04-2.69-20.31-8.04-25.18-18.73c-1.98-4.35-3.43-9.4-3.44-14.14
		c-0.21-62.13-0.13-124.25-0.12-186.38c0-33.7,0.42-67.41-0.16-101.1C44.51,18.64,59.48,2.02,80.14,2.15
		C125.09,2.44,170.05,2.3,215,2.16c4.63-0.01,8.13,1.43,11.32,4.64c28.21,28.37,56.54,56.61,84.59,85.13c2.33,2.37,3.97,6.55,4,9.91
		c0.31,37.78,0.26,75.57,0.26,113.36c0,35.74-0.09,71.49-0.06,107.23c0.01,18.05-9.64,30.37-27.41,34.72
		c-0.48,0.12-0.9,0.47-1.34,0.71C215.48,357.85,144.61,357.85,73.74,357.85z M206.17,27.17c-1.25-0.24-1.58-0.36-1.92-0.36
		c-41.55-0.01-83.11-0.05-124.66,0c-6.81,0.01-9.98,3.71-9.99,11.21c-0.01,94.66-0.01,189.33,0,283.99
		c0,8.08,3.27,11.26,11.51,11.26c65.74,0,131.47,0,197.21,0c9.25,0,12.16-2.91,12.16-12.14c0-67.93,0-135.87,0-203.8
		c0-1.8,0-3.6,0-5.74c-2.56,0-4.41,0-6.26,0c-16.35-0.02-32.7,0.13-49.05-0.11c-15.12-0.22-27.96-12.19-28.51-27.14
		c-0.62-16.83-0.38-33.69-0.5-50.54C206.15,31.64,206.17,29.46,206.17,27.17z M276.91,89.64c-16.49-16.37-32.55-32.32-48.8-48.45
		c0,12.59-0.05,25.27,0.02,37.96c0.04,7.44,2.65,10.32,10.03,10.44C250.88,89.79,263.62,89.64,276.91,89.64z"/>
	<path class="st0" d="M141.2,115.31c-0.14-0.11,0.24,0.23,0.65,0.52c8.71,6.18,12.38,13.9,8.71,24.69
		c-1.56,4.58-0.97,9.87-2.39,14.52c-1.95,6.38,0.57,10.78,5.19,15.33c3.15-3.92,7.09-6.75,5.52-13.29
		c-2.13-8.88-3.01-18.07-4.12-27.16c-0.21-1.73,0.53-4.01,1.63-5.38c2.88-3.56,6.2-6.76,8.43-9.12c8.64,4.52,16.33,8.7,24.17,12.57
		c3.73,1.84,6.32,4.3,7.55,8.35c2.76,9.06,5.75,18.06,8.55,27.11c0.44,1.43,0.35,3.02,0.54,4.54c0.53,4.35-1.16,6.01-5.74,5.98
		c-26.06-0.18-52.12-0.09-78.18-0.09c-5.11,0-10.23-0.18-15.33,0.06c-4.09,0.19-6.01-1.64-5.16-5.42c1.89-8.42,4.39-16.7,6.29-25.12
		c2.18-9.64,7.79-15.48,17.17-18.82C130.46,122.53,135.56,118.56,141.2,115.31z"/>
	<path class="st0" d="M124.75,77.48c1-23.66,11.25-31.68,31.31-30.8c9.6,0.42,18.15,3.22,22.75,12.64
		c6.49,13.32,2.03,37.67-8.63,48.09c-12.7,12.4-32.6,8.05-39.96-9.41C126.98,90.34,125.85,81.79,124.75,77.48z"/>
	<path class="st0" d="M180.03,258.7c-23.66,0-47.33,0.01-70.99,0c-6.26-0.01-10.64-3.49-10.69-8.4c-0.05-5.1,4.15-8.69,10.46-8.69
		c47.5-0.02,95-0.02,142.5,0c6.29,0,10.5,3.61,10.43,8.72c-0.07,4.92-4.45,8.37-10.71,8.37C227.36,258.7,203.7,258.7,180.03,258.7z"
		/>
	<path class="st0" d="M179.88,199.41c23.83,0,47.66-0.01,71.49,0.01c6.22,0.01,10.23,3.18,10.37,8.06
		c0.15,5.23-3.82,8.74-10.36,8.74c-22.45,0-44.9-0.18-67.35-0.19c-25-0.01-50.01,0.05-75.01,0.18c-4.92,0.03-8.75-1.34-10.27-6.42
		c-1.27-4.27,0.71-7.35,4.29-9.31c1.52-0.83,3.55-1.02,5.35-1.02C132.22,199.39,156.05,199.41,179.88,199.41z"/>
	<path class="st0" d="M180.04,284.28c23.68,0,47.35,0,71.03,0.01c6.45,0,10.62,3.3,10.68,8.37c0.06,5.09-4.04,8.39-10.66,8.4
		c-47.19,0.02-94.37,0-141.56,0.03c-4.51,0-9.03-0.56-10.26-5.54c-0.63-2.53,0.05-6.26,1.65-8.23c1.5-1.85,4.97-2.89,7.59-2.91
		C132.35,284.19,156.2,284.28,180.04,284.28z"/>
</g>
</svg>
