<?xml version="1.0" encoding="utf-8"?>
<!-- Generator: Adobe Illustrator 25.3.0, SVG Export Plug-In . SVG Version: 6.00 Build 0)  -->
<svg version="1.1" id="Layer_1" xmlns="http://www.w3.org/2000/svg" xmlns:xlink="http://www.w3.org/1999/xlink" x="0px" y="0px"
	 viewBox="0 0 254.98 360" style="enable-background:new 0 0 254.98 360;" xml:space="preserve">
<style type="text/css">
	.st0{fill:#BA3826;}
	.st1{fill:#FFFFFF;}
</style>
<g>
	<g>
		<path class="st0" d="M3.36,357.92h248.26c1.86,0,3.36-1.51,3.36-3.36V27.33c0-1.86-1.51-3.36-3.36-3.36H3.36
			C1.51,23.97,0,25.47,0,27.33v327.23C0,356.41,1.51,357.92,3.36,357.92z"/>
	</g>
	<g>
		<path class="st1" d="M33.33,223.77h188.32c1.86,0,3.36-1.51,3.36-3.36V5.45c0-1.86-1.51-3.36-3.36-3.36H33.33
			c-1.86,0-3.36,1.51-3.36,3.36V220.4C29.97,222.26,31.48,223.77,33.33,223.77z"/>
	</g>
	<g>
		<path class="st1" d="M64.13,276h-7.66l-1.27,3.66h-4.05l6.91-19.25h4.49l6.91,19.25h-4.07L64.13,276z M63.08,272.92l-2.78-8.04
			l-2.78,8.04H63.08z"/>
		<path class="st1" d="M72.03,267.89c0.64-1.18,1.53-2.1,2.67-2.75c1.14-0.65,2.44-0.98,3.91-0.98c1.89,0,3.46,0.47,4.69,1.42
			c1.24,0.94,2.07,2.27,2.49,3.98h-4.16c-0.22-0.66-0.59-1.18-1.12-1.56c-0.52-0.37-1.17-0.56-1.94-0.56c-1.1,0-1.97,0.4-2.61,1.2
			c-0.64,0.8-0.96,1.93-0.96,3.4c0,1.45,0.32,2.58,0.96,3.37c0.64,0.8,1.51,1.2,2.61,1.2c1.56,0,2.58-0.7,3.06-2.09h4.16
			c-0.42,1.65-1.26,2.97-2.51,3.94c-1.25,0.97-2.81,1.46-4.68,1.46c-1.47,0-2.77-0.33-3.91-0.98c-1.14-0.65-2.03-1.57-2.67-2.75
			c-0.64-1.18-0.96-2.57-0.96-4.15C71.06,270.46,71.39,269.08,72.03,267.89z"/>
		<path class="st1" d="M88.6,267.89c0.64-1.18,1.53-2.1,2.67-2.75c1.14-0.65,2.44-0.98,3.91-0.98c1.89,0,3.46,0.47,4.69,1.42
			c1.24,0.94,2.07,2.27,2.49,3.98h-4.16c-0.22-0.66-0.59-1.18-1.12-1.56c-0.52-0.37-1.17-0.56-1.94-0.56c-1.1,0-1.97,0.4-2.61,1.2
			c-0.64,0.8-0.96,1.93-0.96,3.4c0,1.45,0.32,2.58,0.96,3.37c0.64,0.8,1.51,1.2,2.61,1.2c1.56,0,2.58-0.7,3.06-2.09h4.16
			c-0.42,1.65-1.26,2.97-2.51,3.94c-1.25,0.97-2.81,1.46-4.68,1.46c-1.47,0-2.77-0.33-3.91-0.98c-1.14-0.65-2.03-1.57-2.67-2.75
			c-0.64-1.18-0.96-2.57-0.96-4.15C87.64,270.46,87.96,269.08,88.6,267.89z"/>
		<path class="st1" d="M111,264.88c0.8-0.46,1.71-0.69,2.74-0.69v4.05h-1.02c-1.21,0-2.12,0.29-2.74,0.85
			c-0.61,0.57-0.92,1.56-0.92,2.97v7.6h-3.86v-15.25h3.86v2.37C109.56,265.97,110.2,265.34,111,264.88z"/>
		<path class="st1" d="M130.4,273.2h-11.15c0.09,1.1,0.48,1.97,1.16,2.59c0.68,0.62,1.51,0.94,2.51,0.94c1.43,0,2.45-0.62,3.06-1.85
			h4.16c-0.44,1.47-1.28,2.67-2.53,3.62c-1.25,0.95-2.78,1.42-4.6,1.42c-1.47,0-2.79-0.33-3.95-0.98c-1.17-0.65-2.07-1.57-2.73-2.77
			s-0.98-2.57-0.98-4.13c0-1.58,0.32-2.96,0.96-4.16s1.54-2.11,2.7-2.75c1.15-0.64,2.49-0.96,3.99-0.96c1.45,0,2.75,0.31,3.89,0.94
			c1.15,0.62,2.04,1.51,2.67,2.66c0.63,1.15,0.95,2.46,0.95,3.95C130.51,272.26,130.47,272.76,130.4,273.2z M126.52,270.61
			c-0.02-0.99-0.38-1.78-1.08-2.38c-0.7-0.6-1.55-0.9-2.56-0.9c-0.96,0-1.76,0.29-2.41,0.87c-0.65,0.58-1.05,1.38-1.2,2.41H126.52z"
			/>
		<path class="st1" d="M133.25,267.88c0.61-1.19,1.45-2.11,2.52-2.75c1.06-0.64,2.25-0.96,3.55-0.96c0.99,0,1.94,0.22,2.84,0.65
			c0.9,0.43,1.61,1,2.15,1.72v-7.24h3.91v20.38h-3.91v-2.26c-0.48,0.75-1.15,1.36-2.01,1.82s-1.86,0.69-3,0.69
			c-1.29,0-2.46-0.33-3.52-0.99c-1.06-0.66-1.91-1.59-2.52-2.79c-0.62-1.2-0.92-2.58-0.92-4.15
			C132.33,270.44,132.63,269.07,133.25,267.88z M143.78,269.63c-0.37-0.67-0.86-1.18-1.49-1.54s-1.29-0.54-2.01-0.54
			c-0.72,0-1.38,0.17-1.98,0.52c-0.61,0.35-1.1,0.86-1.47,1.53c-0.38,0.67-0.56,1.46-0.56,2.38c0,0.92,0.19,1.72,0.56,2.41
			c0.38,0.69,0.87,1.22,1.49,1.58c0.61,0.37,1.27,0.55,1.97,0.55c0.72,0,1.38-0.18,2.01-0.54c0.63-0.36,1.12-0.87,1.49-1.54
			c0.37-0.67,0.55-1.47,0.55-2.41S144.15,270.3,143.78,269.63z"/>
		<path class="st1" d="M152.25,261.95c-0.45-0.43-0.67-0.97-0.67-1.61c0-0.64,0.22-1.18,0.67-1.61s1.01-0.65,1.69-0.65
			s1.24,0.22,1.69,0.65c0.45,0.43,0.67,0.97,0.67,1.61c0,0.64-0.22,1.18-0.67,1.61c-0.45,0.43-1.02,0.65-1.69,0.65
			S152.7,262.38,152.25,261.95z M155.84,264.41v15.25h-3.86v-15.25H155.84z"/>
		<path class="st1" d="M164.13,267.58v7.38c0,0.51,0.12,0.88,0.37,1.11c0.25,0.23,0.66,0.35,1.25,0.35h1.79v3.25h-2.42
			c-3.25,0-4.87-1.58-4.87-4.74v-7.35h-1.82v-3.17h1.82v-3.77h3.88v3.77h3.41v3.17H164.13z"/>
		<path class="st1" d="M184.4,273.2h-11.15c0.09,1.1,0.48,1.97,1.16,2.59c0.68,0.62,1.51,0.94,2.51,0.94c1.43,0,2.45-0.62,3.06-1.85
			h4.16c-0.44,1.47-1.28,2.67-2.53,3.62c-1.25,0.95-2.78,1.42-4.6,1.42c-1.47,0-2.79-0.33-3.95-0.98c-1.17-0.65-2.07-1.57-2.73-2.77
			c-0.65-1.19-0.98-2.57-0.98-4.13c0-1.58,0.32-2.96,0.96-4.16s1.54-2.11,2.7-2.75c1.15-0.64,2.49-0.96,3.99-0.96
			c1.45,0,2.75,0.31,3.89,0.94c1.15,0.62,2.04,1.51,2.67,2.66c0.63,1.15,0.95,2.46,0.95,3.95
			C184.51,272.26,184.47,272.76,184.4,273.2z M180.51,270.61c-0.02-0.99-0.38-1.78-1.08-2.38c-0.7-0.6-1.55-0.9-2.56-0.9
			c-0.96,0-1.76,0.29-2.41,0.87c-0.65,0.58-1.05,1.38-1.2,2.41H180.51z"/>
		<path class="st1" d="M187.24,267.88c0.61-1.19,1.45-2.11,2.52-2.75c1.06-0.64,2.25-0.96,3.55-0.96c0.99,0,1.94,0.22,2.84,0.65
			c0.9,0.43,1.61,1,2.15,1.72v-7.24h3.91v20.38h-3.91v-2.26c-0.48,0.75-1.15,1.36-2.01,1.82c-0.86,0.46-1.86,0.69-3,0.69
			c-1.29,0-2.46-0.33-3.52-0.99c-1.06-0.66-1.91-1.59-2.52-2.79c-0.62-1.2-0.92-2.58-0.92-4.15
			C186.32,270.44,186.63,269.07,187.24,267.88z M197.78,269.63c-0.37-0.67-0.86-1.18-1.49-1.54c-0.63-0.36-1.29-0.54-2.01-0.54
			c-0.72,0-1.38,0.17-1.98,0.52c-0.61,0.35-1.1,0.86-1.47,1.53c-0.38,0.67-0.56,1.46-0.56,2.38c0,0.92,0.19,1.72,0.56,2.41
			c0.38,0.69,0.87,1.22,1.49,1.58c0.61,0.37,1.27,0.55,1.97,0.55c0.72,0,1.38-0.18,2.01-0.54c0.62-0.36,1.12-0.87,1.49-1.54
			c0.37-0.67,0.55-1.47,0.55-2.41S198.14,270.3,197.78,269.63z"/>
	</g>
	<g>
		<path class="st1" d="M65.76,299.62c0.84-1.5,2-2.67,3.46-3.51c1.46-0.85,3.08-1.27,4.86-1.27c2.09,0,3.92,0.51,5.48,1.51
			c1.56,1.01,2.7,2.44,3.41,4.3h-3c-0.53-1.16-1.3-2.05-2.3-2.67c-1-0.62-2.2-0.94-3.59-0.94c-1.34,0-2.54,0.31-3.61,0.94
			c-1.06,0.62-1.9,1.51-2.51,2.66c-0.61,1.15-0.91,2.49-0.91,4.03c0,1.52,0.3,2.86,0.91,4.01c0.61,1.15,1.44,2.03,2.51,2.66
			c1.06,0.62,2.27,0.94,3.61,0.94c1.39,0,2.59-0.31,3.59-0.92c1-0.62,1.77-1.5,2.3-2.66h3c-0.72,1.84-1.85,3.25-3.41,4.26
			c-1.56,1-3.39,1.5-5.48,1.5c-1.78,0-3.4-0.42-4.86-1.25c-1.46-0.84-2.61-2-3.46-3.49c-0.85-1.48-1.27-3.17-1.27-5.04
			S64.92,301.12,65.76,299.62z"/>
		<path class="st1" d="M89.43,313.57c-1.15-0.64-2.05-1.56-2.7-2.74c-0.65-1.18-0.98-2.56-0.98-4.12c0-1.54,0.33-2.91,1-4.09
			c0.67-1.18,1.58-2.09,2.74-2.72c1.16-0.63,2.45-0.95,3.88-0.95c1.43,0,2.73,0.32,3.88,0.95c1.16,0.63,2.07,1.54,2.74,2.71
			c0.67,1.18,1,2.54,1,4.1c0,1.56-0.34,2.93-1.03,4.12c-0.69,1.18-1.62,2.1-2.79,2.74c-1.18,0.64-2.48,0.96-3.91,0.96
			C91.86,314.53,90.58,314.21,89.43,313.57z M95.8,311.69c0.79-0.42,1.43-1.06,1.91-1.9c0.49-0.85,0.73-1.87,0.73-3.08
			s-0.24-2.24-0.72-3.08c-0.48-0.85-1.1-1.47-1.87-1.89c-0.77-0.41-1.6-0.62-2.51-0.62c-0.92,0-1.76,0.2-2.52,0.62
			c-0.76,0.41-1.37,1.04-1.83,1.89c-0.46,0.84-0.69,1.87-0.69,3.08c0,1.23,0.22,2.27,0.67,3.11c0.45,0.84,1.05,1.47,1.8,1.89
			c0.75,0.41,1.58,0.62,2.48,0.62C94.17,312.33,95.01,312.11,95.8,311.69z"/>
		<path class="st1" d="M117.69,299.19v15.09h-2.51v-2.23c-0.48,0.77-1.14,1.37-2,1.8c-0.85,0.43-1.79,0.65-2.82,0.65
			c-1.17,0-2.23-0.24-3.17-0.73c-0.94-0.49-1.68-1.21-2.22-2.19c-0.54-0.97-0.81-2.16-0.81-3.55v-8.84h2.48v8.51
			c0,1.49,0.38,2.63,1.13,3.43c0.75,0.8,1.78,1.2,3.08,1.2c1.34,0,2.4-0.41,3.17-1.24c0.77-0.83,1.16-2.03,1.16-3.61v-8.29H117.69z"
			/>
		<path class="st1" d="M126.33,299.63c0.82-0.48,1.81-0.72,2.99-0.72v2.59h-0.66c-2.81,0-4.21,1.52-4.21,4.57v8.2h-2.51v-15.09h2.51
			v2.45C124.88,300.78,125.51,300.11,126.33,299.63z"/>
		<path class="st1" d="M134.43,313.94c-0.92-0.4-1.64-0.94-2.18-1.65c-0.53-0.71-0.83-1.52-0.88-2.44h2.59
			c0.07,0.75,0.43,1.37,1.06,1.85c0.63,0.48,1.46,0.72,2.49,0.72c0.96,0,1.71-0.21,2.26-0.63c0.55-0.42,0.83-0.96,0.83-1.6
			c0-0.66-0.29-1.15-0.88-1.47c-0.59-0.32-1.5-0.64-2.73-0.95c-1.12-0.29-2.03-0.59-2.74-0.9s-1.31-0.75-1.81-1.35
			c-0.5-0.6-0.76-1.38-0.76-2.36c0-0.77,0.23-1.48,0.69-2.12c0.46-0.64,1.11-1.15,1.96-1.53c0.84-0.37,1.81-0.56,2.89-0.56
			c1.67,0,3.02,0.42,4.05,1.27c1.03,0.84,1.58,2,1.65,3.47h-2.51c-0.05-0.79-0.37-1.42-0.95-1.9s-1.35-0.72-2.33-0.72
			c-0.9,0-1.62,0.19-2.15,0.58c-0.53,0.39-0.8,0.89-0.8,1.51c0,0.5,0.16,0.91,0.48,1.23c0.32,0.32,0.72,0.58,1.21,0.77
			c0.49,0.19,1.16,0.41,2.02,0.65c1.08,0.29,1.97,0.58,2.64,0.87c0.68,0.28,1.26,0.71,1.75,1.28c0.49,0.57,0.74,1.31,0.76,2.23
			c0,0.82-0.23,1.57-0.69,2.23c-0.46,0.66-1.11,1.18-1.94,1.56c-0.84,0.38-1.79,0.56-2.88,0.56
			C136.39,314.53,135.35,314.33,134.43,313.94z"/>
		<path class="st1" d="M160.26,307.67H148.2c0.09,1.49,0.6,2.65,1.53,3.48s2.05,1.25,3.37,1.25c1.08,0,1.99-0.25,2.71-0.76
			c0.72-0.5,1.23-1.18,1.53-2.03h2.7c-0.4,1.45-1.21,2.63-2.42,3.54c-1.21,0.91-2.72,1.36-4.51,1.36c-1.43,0-2.71-0.32-3.84-0.96
			c-1.13-0.64-2.01-1.56-2.66-2.74c-0.64-1.18-0.96-2.56-0.96-4.12c0-1.56,0.31-2.93,0.94-4.1c0.62-1.17,1.5-2.08,2.63-2.71
			c1.13-0.63,2.43-0.95,3.9-0.95c1.43,0,2.7,0.31,3.8,0.94c1.1,0.62,1.95,1.48,2.55,2.57c0.6,1.09,0.9,2.33,0.9,3.7
			C160.34,306.64,160.31,307.14,160.26,307.67z M157.12,303.17c-0.42-0.69-1-1.21-1.72-1.57c-0.73-0.36-1.53-0.54-2.41-0.54
			c-1.27,0-2.34,0.41-3.23,1.21c-0.89,0.81-1.4,1.93-1.53,3.36h9.53C157.75,304.68,157.54,303.86,157.12,303.17z"/>
		<path class="st1" d="M165.88,313.94c-0.92-0.4-1.64-0.94-2.18-1.65c-0.53-0.71-0.83-1.52-0.88-2.44h2.59
			c0.07,0.75,0.43,1.37,1.06,1.85c0.63,0.48,1.46,0.72,2.49,0.72c0.96,0,1.71-0.21,2.26-0.63c0.55-0.42,0.83-0.96,0.83-1.6
			c0-0.66-0.29-1.15-0.88-1.47c-0.59-0.32-1.5-0.64-2.73-0.95c-1.12-0.29-2.03-0.59-2.74-0.9s-1.31-0.75-1.81-1.35
			c-0.5-0.6-0.76-1.38-0.76-2.36c0-0.77,0.23-1.48,0.69-2.12c0.46-0.64,1.11-1.15,1.96-1.53c0.84-0.37,1.81-0.56,2.89-0.56
			c1.67,0,3.02,0.42,4.05,1.27c1.03,0.84,1.58,2,1.65,3.47h-2.51c-0.05-0.79-0.37-1.42-0.95-1.9s-1.35-0.72-2.33-0.72
			c-0.9,0-1.62,0.19-2.15,0.58c-0.53,0.39-0.8,0.89-0.8,1.51c0,0.5,0.16,0.91,0.48,1.23c0.32,0.32,0.72,0.58,1.21,0.77
			c0.49,0.19,1.16,0.41,2.02,0.65c1.08,0.29,1.97,0.58,2.64,0.87c0.68,0.28,1.26,0.71,1.75,1.28c0.49,0.57,0.74,1.31,0.76,2.23
			c0,0.82-0.23,1.57-0.69,2.23c-0.46,0.66-1.11,1.18-1.94,1.56s-1.79,0.56-2.88,0.56C167.83,314.53,166.79,314.33,165.88,313.94z"/>
	</g>
	<g>
		<g>
			<path class="st0" d="M66.62,76.43c3.12-8.19,6.26-10.34,15.07-10.34c9.23,0,18.46,0.09,27.68-0.03
				c6.84-0.09,13.21,0.93,18.06,6.52c4.54-5.02,10.21-6.53,16.5-6.5c10.28,0.04,20.57,0,30.85,0.02
				c8.49,0.02,13.57,5.13,13.57,13.67c0.01,20.67,0.01,41.33,0,62c0,8.51-5.08,13.6-13.61,13.62c-10.48,0.02-20.96,0.12-31.43-0.04
				c-5.1-0.08-8.85,1.73-11.46,6.17c-1.74,2.96-7,3.03-8.71,0.08c-2.73-4.7-6.72-6.36-12.01-6.26c-9.8,0.19-19.61,0.06-29.41,0.06
				c-8.89,0-11.99-2.11-15.11-10.29C66.62,122.21,66.62,99.32,66.62,76.43z M127.48,153.73c4.38-4.88,9.85-6.47,16.12-6.38
				c10.38,0.15,20.77,0.05,31.16,0.03c4.1-0.01,5.53-1.44,5.53-5.55c0.01-20.68,0.01-41.35,0-62.03c0-4.31-1.37-5.66-5.69-5.67
				c-10.48-0.01-20.97,0.04-31.45-0.02c-4.8-0.03-8.51,1.66-11.07,5.88c-2.04,3.37-7.25,3.35-9.31-0.07
				c-2.57-4.27-6.31-5.83-11.09-5.81c-10.48,0.06-20.96,0.01-31.45,0.02c-4.2,0.01-5.55,1.35-5.55,5.47c-0.01,20.68,0,41.35,0,62.03
				c0,4.48,1.3,5.74,5.88,5.75c10,0.01,20.01,0.14,30-0.05C117.12,147.21,122.92,148.64,127.48,153.73z"/>
		</g>
	</g>
	<g>
		<circle class="st0" cx="184.1" cy="83.91" r="26.64"/>
	</g>
	<g>
		<polygon class="st1" points="184.1,71.24 187.25,80.92 197.42,80.92 189.19,86.9 192.33,96.57 184.1,90.59 175.87,96.57 
			179.01,86.9 170.78,80.92 180.96,80.92 		"/>
	</g>
</g>
</svg>
